<svg xmlns="http://www.w3.org/2000/svg" xmlns:xlink="http://www.w3.org/1999/xlink" width="500" zoomAndPan="magnify" viewBox="0 0 375 374.999991" height="500" preserveAspectRatio="xMidYMid meet" version="1.0"><defs><g/><clipPath id="9fdf285221"><path d="M 190.449219 170.417969 L 296.199219 170.417969 L 296.199219 215.417969 L 190.449219 215.417969 Z M 190.449219 170.417969 " clip-rule="nonzero"/></clipPath><clipPath id="bb881b5655"><path d="M 79 162 L 198 162 L 198 226.378906 L 79 226.378906 Z M 79 162 " clip-rule="nonzero"/></clipPath></defs><g clip-path="url(#9fdf285221)"><path fill="#000000" d="M 281.535156 212.679688 C 282.246094 212.78125 282.804688 212.882812 283.210938 212.882812 C 286.566406 213.1875 289.921875 213.539062 293.277344 213.996094 C 293.886719 214.097656 295.460938 214.199219 295.917969 214.605469 C 295.96875 214.65625 295.96875 214.65625 295.917969 214.707031 C 295.664062 214.808594 295.511719 214.910156 295.410156 214.910156 C 293.53125 215.113281 291.597656 215.214844 289.667969 215.214844 C 273.5 215.417969 257.285156 214.859375 241.171875 214.046875 C 239.035156 213.945312 235.679688 213.691406 231.054688 213.339844 C 213.515625 211.917969 196.894531 210.445312 181.183594 209.027344 C 180.371094 208.976562 179.761719 208.925781 179.304688 208.875 C 181.082031 208.824219 182.8125 208.773438 184.589844 208.722656 C 184.640625 208.722656 184.640625 208.722656 184.589844 208.671875 C 182.101562 207.097656 180.878906 204.511719 180.472656 201.617188 C 180.472656 201.515625 180.421875 201.464844 180.320312 201.414062 L 177.574219 199.84375 C 177.421875 199.742188 177.371094 199.539062 177.472656 199.386719 C 178.085938 198.472656 178.644531 197.964844 178.441406 196.800781 C 178.238281 195.632812 178.085938 194.515625 177.882812 193.398438 C 177.675781 192.234375 177.574219 191.371094 177.574219 190.8125 C 177.625 188.683594 178.390625 186.144531 178.898438 184.421875 C 179.152344 183.507812 179.253906 182.796875 180.167969 182.390625 C 180.980469 182.035156 181.746094 181.832031 182.507812 181.730469 C 184.589844 181.476562 186.878906 181.324219 189.371094 181.273438 C 191.808594 181.222656 194.097656 181.171875 196.285156 181.375 C 198.570312 181.578125 200.605469 182.644531 202.6875 183.660156 C 202.941406 183.8125 203.550781 183.8125 203.910156 183.8125 C 213.871094 183.914062 222.71875 183.8125 233.800781 183.863281 C 237.308594 183.863281 240.507812 183.964844 243.355469 184.117188 C 251.335938 184.574219 259.0625 186.144531 266.585938 188.886719 C 267.351562 189.136719 268.164062 189.542969 268.925781 189.847656 C 268.976562 189.847656 268.976562 189.847656 268.976562 189.796875 C 268.976562 189.796875 268.976562 189.746094 268.976562 189.746094 C 261.199219 184.976562 251.949219 182.898438 242.949219 182.847656 C 236.949219 182.796875 232.121094 182.796875 228.460938 182.847656 C 228.308594 182.847656 228.257812 182.796875 228.15625 182.746094 C 226.429688 180.667969 224.648438 178.6875 222.820312 176.707031 C 220.9375 174.679688 219.007812 173.054688 216.109375 172.75 C 208.382812 171.992188 199.996094 175.542969 193.488281 179.804688 C 193.488281 179.804688 193.4375 179.804688 193.4375 179.855469 C 193.386719 179.90625 193.4375 179.90625 193.4375 179.855469 C 199.230469 176.457031 206.144531 173.410156 212.957031 173.054688 C 215.195312 172.953125 217.53125 173.207031 219.464844 174.425781 C 220.429688 175.085938 221.546875 176 222.769531 177.316406 C 224.445312 179.09375 226.023438 180.917969 227.597656 182.746094 C 227.597656 182.746094 227.597656 182.796875 227.597656 182.796875 C 223.125 182.796875 218.601562 182.796875 214.125 182.796875 C 211.078125 182.796875 208.027344 182.898438 204.925781 182.796875 C 204.011719 182.746094 202.789062 182.035156 201.976562 181.628906 C 200.808594 181.070312 199.789062 180.667969 198.671875 180.617188 C 196.4375 180.515625 193.894531 180.515625 190.945312 180.71875 C 190.894531 180.71875 190.894531 180.71875 190.945312 180.667969 C 198.570312 175.441406 206.449219 171.6875 215.652344 170.976562 C 223.226562 170.417969 231.511719 170.925781 239.289062 171.992188 C 240.152344 172.09375 241.070312 172.296875 242.035156 172.597656 C 248.492188 174.425781 254.84375 177.925781 260.183594 181.070312 C 260.285156 181.121094 260.285156 181.171875 260.183594 181.171875 C 259.421875 181.121094 258.605469 181.070312 257.894531 181.070312 C 253.523438 181.019531 249.101562 181.070312 244.730469 181.121094 C 244.730469 181.121094 244.679688 181.121094 244.730469 181.171875 C 244.730469 181.171875 244.730469 181.171875 244.730469 181.222656 C 249.355469 181.476562 253.980469 181.832031 258.605469 182.289062 C 268.976562 183.304688 279.09375 185.636719 288.699219 189.644531 C 288.699219 189.644531 288.75 189.644531 288.75 189.644531 C 288.800781 189.644531 288.800781 189.59375 288.75 189.59375 C 285.550781 187.769531 282.246094 186.144531 278.839844 184.675781 C 278.636719 184.574219 278.636719 184.523438 278.890625 184.523438 C 284.53125 184.574219 291.242188 185.128906 294.546875 190.507812 C 294.597656 190.558594 294.546875 190.609375 294.496094 190.609375 C 289.363281 191.320312 284.226562 192.183594 278.890625 191.878906 C 274.722656 191.625 270.554688 191.21875 266.332031 190.863281 C 258.453125 190.253906 250.625 189.339844 242.746094 188.582031 C 242.746094 188.582031 242.746094 188.582031 242.695312 188.582031 C 242.695312 188.582031 242.695312 188.582031 242.695312 188.632812 C 245.796875 189.949219 248.847656 191.320312 251.949219 192.640625 C 253.828125 193.449219 256.015625 194.363281 258.25 194.464844 C 260.335938 194.566406 262.722656 194.667969 265.46875 194.667969 C 265.671875 194.667969 265.773438 194.71875 265.925781 194.515625 C 267.503906 192.640625 269.585938 191.777344 272.078125 191.929688 C 274.265625 192.03125 276.398438 192.285156 278.535156 192.4375 C 281.226562 192.640625 283.769531 192.539062 286.414062 192.183594 C 287.53125 192.03125 288.292969 191.980469 288.699219 192.03125 C 290.277344 192.183594 291.445312 193.09375 292.15625 194.667969 C 292.15625 194.71875 292.207031 194.71875 292.257812 194.71875 L 295.714844 194.363281 C 295.765625 194.363281 295.765625 194.363281 295.765625 194.414062 L 296.070312 196.191406 C 296.070312 196.242188 296.019531 196.292969 295.96875 196.292969 C 289.414062 196.648438 282.804688 196.851562 276.246094 196.800781 C 268.722656 196.699219 262.011719 196.34375 255.199219 196.242188 C 255.199219 196.242188 255.199219 196.292969 255.199219 196.292969 C 255.402344 196.34375 255.558594 196.34375 255.761719 196.34375 C 262.214844 196.902344 268.621094 197.507812 275.078125 198.015625 C 277.667969 198.21875 280.007812 198.472656 282.5 198.21875 C 286.769531 197.8125 292.410156 197.003906 296.070312 196.445312 C 296.121094 196.445312 296.121094 196.445312 296.171875 196.496094 L 296.378906 200.25 C 296.378906 200.300781 296.328125 200.351562 296.273438 200.351562 L 289.667969 201.214844 C 289.617188 201.214844 289.566406 201.261719 289.566406 201.3125 C 289.566406 201.3125 289.566406 201.363281 289.617188 201.363281 C 289.667969 201.414062 289.769531 201.464844 289.921875 201.464844 C 291.597656 201.363281 293.328125 201.214844 295.003906 201.0625 C 295.054688 201.0625 295.054688 201.0625 295.054688 201.113281 L 295.003906 202.378906 C 295.003906 202.429688 294.953125 202.429688 294.953125 202.429688 C 293.835938 202.378906 292.769531 202.53125 291.851562 202.734375 C 287.785156 203.800781 285.140625 204.460938 284.023438 204.765625 C 282.246094 205.222656 280.972656 205.121094 279.042969 204.765625 C 275.789062 204.15625 272.535156 203.597656 269.230469 203.039062 C 268.570312 202.9375 267.910156 202.835938 267.199219 202.835938 C 262.773438 202.734375 258.300781 202.734375 253.878906 202.835938 C 253.828125 202.835938 253.828125 202.835938 253.777344 202.886719 C 253.777344 202.886719 253.726562 202.886719 253.726562 202.886719 C 253.675781 202.886719 253.675781 202.886719 253.726562 202.9375 C 253.726562 202.9375 253.777344 202.9375 253.777344 202.9375 C 253.777344 202.9375 253.828125 202.9375 253.828125 202.9375 C 257.742188 203.140625 261.605469 203.34375 265.519531 203.496094 C 266.230469 203.546875 266.894531 203.546875 267.65625 203.699219 C 271.316406 204.257812 275.027344 204.867188 278.6875 205.421875 C 280.921875 205.777344 281.992188 205.980469 283.820312 205.523438 C 287.988281 204.511719 290.683594 203.902344 291.851562 203.597656 C 292.71875 203.394531 295.5625 202.835938 296.171875 203.648438 C 296.53125 204.054688 296.328125 205.273438 296.273438 205.828125 C 296.121094 207.453125 294.648438 207.757812 293.328125 207.910156 C 291.800781 208.113281 290.277344 208.265625 288.75 208.417969 C 288.699219 208.417969 288.648438 208.46875 288.648438 208.46875 C 287.074219 211.207031 284.683594 212.273438 281.535156 212.679688 C 281.429688 212.628906 281.429688 212.679688 281.535156 212.679688 Z M 187.183594 186.90625 C 190.640625 188.023438 193.03125 192.539062 194.199219 195.582031 C 194.199219 195.582031 194.25 195.632812 194.25 195.582031 C 194.25 195.582031 194.25 195.582031 194.25 195.53125 C 193.589844 191.675781 190.996094 184.167969 185.660156 185.28125 C 183.675781 185.6875 181.644531 187.414062 180.320312 189.035156 C 180.320312 189.035156 180.320312 189.035156 180.320312 189.085938 C 180.320312 189.085938 180.320312 189.085938 180.371094 189.085938 C 182.355469 187.515625 184.4375 186.042969 187.183594 186.90625 Z M 200.300781 187.617188 L 231.765625 193.398438 C 231.816406 193.398438 231.867188 193.398438 231.867188 193.347656 C 232.375 191.980469 233.085938 190.761719 234.003906 189.695312 C 234.003906 189.695312 234.003906 189.644531 234.003906 189.59375 C 234.003906 189.59375 234.003906 189.59375 233.953125 189.59375 C 223.125 188.9375 212.296875 188.277344 201.46875 187.667969 C 201.113281 187.566406 200.707031 187.566406 200.300781 187.617188 C 200.300781 187.566406 200.300781 187.566406 200.300781 187.617188 C 200.300781 187.566406 200.300781 187.617188 200.300781 187.617188 Z M 183.320312 206.335938 C 184.082031 206.945312 184.84375 207.148438 185.710938 206.945312 C 187.132812 206.589844 188.199219 205.171875 188.707031 203.851562 C 189.675781 201.464844 189.929688 198.777344 189.371094 196.292969 C 189.015625 194.617188 187.945312 191.980469 186.015625 191.574219 C 183.625 191.066406 182 194.109375 181.492188 195.9375 C 180.675781 199.03125 180.625 204.15625 183.320312 206.335938 Z M 238.78125 211.257812 C 242.238281 211.257812 245.085938 207.046875 245.085938 201.769531 C 245.136719 196.546875 242.339844 192.285156 238.882812 192.234375 C 235.425781 192.234375 232.578125 196.445312 232.578125 201.71875 C 232.527344 206.996094 235.324219 211.257812 238.78125 211.257812 Z M 199.738281 199.792969 C 207.417969 200.707031 215.09375 201.617188 222.769531 202.53125 C 222.820312 202.53125 222.820312 202.53125 222.871094 202.53125 C 222.921875 202.53125 222.921875 202.480469 222.871094 202.480469 C 216.972656 201.515625 210.972656 200.707031 205.027344 199.894531 C 202.890625 199.589844 201.164062 199.488281 199.230469 199.691406 C 199.128906 199.691406 199.128906 199.742188 199.230469 199.742188 C 199.382812 199.742188 199.535156 199.792969 199.738281 199.792969 Z M 256.878906 201.164062 C 260.792969 201.566406 264.808594 201.769531 269.027344 201.769531 C 269.078125 201.769531 269.078125 201.769531 269.128906 201.769531 C 269.179688 201.769531 269.179688 201.71875 269.179688 201.71875 C 269.179688 201.667969 269.179688 201.617188 269.128906 201.617188 C 265.113281 201.3125 260.945312 201.011719 256.929688 201.0625 C 255.914062 201.011719 255.914062 201.0625 256.878906 201.164062 Z M 200.707031 208.722656 C 211.074219 208.925781 221.394531 209.179688 231.765625 209.632812 C 232.425781 209.683594 233.085938 209.632812 233.800781 209.582031 C 233.851562 209.582031 233.902344 209.53125 233.851562 209.480469 C 233.851562 209.429688 233.800781 209.429688 233.75 209.429688 C 233.445312 209.382812 233.136719 209.382812 232.832031 209.382812 C 226.074219 209.28125 219.464844 207.859375 212.855469 206.640625 C 209.804688 206.082031 207.722656 205.777344 206.5 205.625 C 202.992188 205.273438 199.433594 205.121094 195.925781 205.019531 C 195.875 205.019531 195.824219 205.019531 195.824219 205.070312 C 194.910156 206.640625 193.996094 207.808594 192.265625 208.519531 C 192.265625 208.519531 192.214844 208.570312 192.265625 208.570312 C 192.265625 208.570312 192.265625 208.570312 192.316406 208.570312 C 195.113281 208.671875 197.960938 208.671875 200.707031 208.722656 Z M 252.304688 210.699219 C 260.285156 211.15625 268.316406 211.511719 276.246094 212.171875 C 276.296875 212.171875 276.296875 212.171875 276.296875 212.121094 C 276.296875 212.121094 276.296875 212.070312 276.246094 212.070312 C 274.570312 211.460938 273.246094 210.445312 272.230469 209.027344 C 272.230469 208.976562 272.179688 208.976562 272.128906 208.976562 L 251.589844 209.382812 C 251.539062 209.382812 251.539062 209.382812 251.488281 209.429688 C 251.285156 209.835938 251.03125 210.191406 250.726562 210.496094 C 250.726562 210.496094 250.726562 210.546875 250.726562 210.597656 C 250.726562 210.597656 250.726562 210.597656 250.777344 210.597656 C 251.285156 210.648438 251.792969 210.699219 252.304688 210.699219 Z M 252.304688 210.699219 " fill-opacity="1" fill-rule="nonzero"/></g><path fill="#000000" d="M 239.847656 193.550781 C 241.832031 194.058594 243.152344 195.988281 243.710938 197.863281 C 243.710938 197.914062 243.710938 197.914062 243.660156 197.964844 L 240.304688 199.742188 C 240.101562 199.84375 239.898438 199.792969 239.796875 199.589844 C 239.746094 199.539062 239.746094 199.488281 239.746094 199.386719 L 239.796875 193.601562 C 239.796875 193.601562 239.796875 193.550781 239.847656 193.550781 Z M 239.847656 193.550781 " fill-opacity="1" fill-rule="nonzero"/><path fill="#000000" d="M 234.308594 197.660156 C 234.308594 197.660156 234.257812 197.609375 234.308594 197.609375 C 234.96875 195.835938 236.085938 194.3125 237.917969 193.652344 C 237.96875 193.652344 238.019531 193.652344 238.019531 193.703125 C 238.019531 193.703125 238.019531 193.703125 238.019531 193.753906 C 238.019531 195.582031 238.019531 197.40625 238.019531 199.234375 C 238.019531 199.589844 237.867188 199.742188 237.5625 199.894531 C 237.511719 199.894531 237.460938 199.894531 237.460938 199.894531 C 236.441406 199.03125 235.375 198.320312 234.308594 197.660156 Z M 234.308594 197.660156 " fill-opacity="1" fill-rule="nonzero"/><path fill="#000000" d="M 236.746094 201.871094 C 237.511719 202.378906 237.15625 203.191406 236.746094 203.902344 C 236.035156 204.96875 235.425781 206.132812 234.714844 207.25 C 234.664062 207.300781 234.664062 207.300781 234.613281 207.25 C 233.546875 205.019531 233.1875 202.683594 233.496094 200.25 C 233.496094 200.199219 233.546875 200.199219 233.597656 200.199219 C 235.121094 200.910156 236.1875 201.515625 236.746094 201.871094 Z M 236.746094 201.871094 " fill-opacity="1" fill-rule="nonzero"/><path fill="#000000" d="M 240.660156 202.277344 C 240.710938 202.226562 240.765625 202.175781 240.816406 202.125 L 244.269531 200.554688 C 244.320312 200.554688 244.320312 200.554688 244.320312 200.605469 C 244.527344 202.9375 244.117188 205.273438 242.949219 207.25 C 242.898438 207.300781 242.847656 207.300781 242.796875 207.300781 C 242.796875 207.300781 242.746094 207.300781 242.746094 207.25 C 242.136719 206.183594 241.527344 205.070312 240.867188 203.953125 C 240.558594 203.292969 240.304688 202.9375 240.660156 202.277344 Z M 240.660156 202.277344 " fill-opacity="1" fill-rule="nonzero"/><path fill="#000000" d="M 241.324219 209.332031 C 239.59375 210.648438 237.765625 210.648438 236.136719 209.179688 C 236.085938 209.128906 236.085938 209.078125 236.085938 209.027344 L 238.375 204.917969 C 238.527344 204.664062 238.78125 204.613281 239.035156 204.714844 C 239.136719 204.765625 239.1875 204.816406 239.238281 204.917969 L 241.324219 209.179688 C 241.375 209.28125 241.375 209.28125 241.324219 209.332031 Z M 241.324219 209.332031 " fill-opacity="1" fill-rule="nonzero"/><g clip-path="url(#bb881b5655)"><path fill="#000000" d="M 86.632812 213.367188 L 101.734375 216.484375 C 97.570312 215.964844 92.363281 215.445312 85.589844 213.886719 L 86.113281 211.804688 Z M 185.574219 174.894531 C 185.574219 174.894531 186.09375 174.371094 186.617188 174.371094 C 187.136719 173.851562 188.179688 174.371094 188.699219 174.371094 C 188.699219 174.894531 189.21875 175.414062 189.21875 175.933594 C 189.738281 176.453125 189.21875 177.492188 188.699219 178.011719 C 188.699219 178.53125 188.179688 178.53125 187.65625 178.53125 C 186.617188 178.53125 186.617188 179.050781 186.617188 180.09375 C 187.65625 180.09375 189.21875 180.09375 190.261719 180.09375 L 190.78125 180.09375 C 190.78125 180.613281 191.300781 181.132812 191.300781 182.171875 C 184.53125 181.132812 177.761719 181.652344 172.035156 185.8125 C 175.679688 181.652344 179.847656 180.613281 184.53125 180.09375 C 182.96875 173.332031 181.929688 168.132812 181.929688 167.09375 C 181.929688 166.574219 181.929688 166.574219 181.929688 166.574219 C 184.53125 167.613281 185.574219 168.652344 186.09375 169.695312 L 187.65625 173.332031 C 187.136719 173.332031 187.136719 173.332031 186.617188 173.332031 L 185.574219 169.695312 C 185.054688 169.175781 184.011719 168.132812 181.929688 167.09375 C 182.449219 169.175781 183.492188 174.894531 184.53125 180.09375 C 185.054688 180.09375 185.574219 180.09375 185.574219 180.09375 C 185.574219 179.570312 186.09375 178.53125 186.09375 178.011719 C 185.054688 177.492188 185.054688 175.933594 185.574219 174.894531 Z M 185.574219 175.933594 C 185.054688 176.972656 185.574219 177.492188 186.617188 178.011719 C 187.65625 178.53125 188.699219 178.011719 189.21875 177.492188 C 188.179688 177.492188 187.65625 178.011719 186.617188 177.492188 C 186.09375 177.492188 185.574219 176.453125 185.574219 175.933594 Z M 177.242188 167.613281 C 176.199219 166.574219 169.953125 166.574219 160.058594 167.09375 L 152.246094 176.453125 C 149.121094 176.453125 145.996094 176.453125 143.394531 176.453125 L 150.683594 167.613281 C 149.644531 167.613281 148.601562 167.613281 147.558594 168.132812 L 139.75 176.453125 C 138.1875 176.453125 137.144531 176.453125 136.105469 176.972656 L 143.914062 168.132812 C 142.875 168.132812 141.832031 168.132812 140.789062 168.652344 C 138.1875 168.652344 136.625 169.175781 135.0625 170.734375 C 131.417969 173.851562 129.335938 175.933594 128.292969 176.972656 C 128.292969 176.972656 128.292969 176.453125 127.773438 176.453125 C 127.773438 175.933594 130.375 173.851562 135.0625 169.695312 C 136.105469 168.132812 138.1875 167.613281 140.269531 167.613281 C 163.703125 165.535156 175.679688 165.015625 177.242188 166.574219 Z M 180.367188 198.808594 L 178.804688 206.609375 C 178.804688 207.128906 178.804688 207.128906 178.804688 207.648438 L 182.96875 205.566406 C 182.96875 205.046875 183.492188 205.046875 183.492188 204.527344 C 183.492188 202.96875 182.449219 200.886719 181.410156 199.328125 C 180.886719 198.808594 180.886719 198.808594 180.367188 198.808594 Z M 181.929688 197.25 C 186.09375 202.96875 185.574219 213.367188 181.410156 218.566406 C 179.847656 220.644531 177.761719 221.683594 174.640625 221.164062 C 180.886719 223.765625 185.054688 217.003906 185.574219 210.765625 C 186.617188 206.085938 185.574219 200.367188 181.929688 197.25 Z M 178.285156 210.765625 C 178.804688 211.804688 179.324219 213.886719 180.367188 217.003906 C 180.367188 217.003906 180.367188 217.527344 180.886719 217.527344 C 181.929688 215.964844 182.449219 213.886719 183.492188 211.285156 C 183.492188 210.765625 183.492188 210.765625 182.96875 210.246094 L 179.324219 209.726562 C 179.324219 210.246094 178.804688 210.765625 178.285156 210.765625 Z M 177.242188 212.328125 C 177.242188 210.765625 176.722656 210.765625 176.199219 211.804688 C 173.597656 216.484375 172.554688 218.566406 172.554688 218.046875 C 172.035156 218.566406 172.035156 219.085938 172.554688 219.605469 C 173.597656 220.644531 174.640625 220.644531 176.199219 220.644531 C 176.722656 220.644531 177.242188 220.125 177.242188 220.125 Z M 84.03125 214.925781 L 94.964844 217.527344 C 102.253906 221.683594 109.546875 221.683594 115.792969 217.527344 L 133.5 218.046875 C 134.542969 218.046875 135.0625 218.566406 136.105469 219.605469 C 143.394531 219.605469 151.726562 219.605469 161.097656 219.605469 C 162.140625 222.203125 164.222656 224.804688 166.828125 226.363281 L 179.847656 226.363281 C 185.574219 225.84375 189.738281 214.925781 189.738281 210.246094 L 194.949219 210.246094 C 196.511719 210.246094 197.03125 205.046875 196.511719 195.167969 C 198.070312 191.53125 198.070312 186.851562 195.988281 183.210938 C 195.46875 182.171875 194.425781 180.613281 192.863281 179.570312 L 191.300781 179.050781 L 187.65625 170.734375 C 186.617188 167.613281 184.011719 165.015625 180.367188 163.976562 C 176.199219 161.894531 164.222656 161.894531 144.4375 163.976562 C 138.707031 164.496094 136.105469 164.496094 134.019531 166.574219 C 131.417969 168.652344 128.8125 171.773438 124.648438 175.933594 C 123.605469 176.453125 122.566406 176.972656 121.523438 177.492188 L 110.585938 178.011719 C 100.691406 179.050781 91.839844 180.613281 83.507812 185.292969 C 81.425781 186.332031 79.863281 186.851562 79.34375 188.929688 C 78.820312 193.089844 79.863281 195.6875 82.46875 198.289062 C 79.863281 199.328125 80.90625 201.410156 81.425781 202.449219 L 85.070312 210.246094 Z M 149.121094 199.847656 L 98.609375 198.808594 L 97.570312 197.769531 L 149.121094 199.328125 Z M 150.164062 196.730469 L 96.007812 196.730469 L 95.484375 195.6875 Z M 150.683594 194.128906 L 94.964844 194.128906 L 94.964844 193.609375 Z M 151.726562 191.53125 L 94.445312 192.050781 L 94.445312 191.011719 Z M 154.851562 189.96875 C 136.105469 189.96875 111.109375 188.929688 92.882812 189.96875 C 92.363281 189.96875 91.839844 189.96875 91.839844 190.488281 C 92.363281 195.167969 93.921875 198.289062 96.007812 200.367188 C 96.007812 199.847656 96.007812 199.847656 95.484375 199.847656 C 92.363281 198.289062 90.277344 194.648438 89.757812 188.929688 C 89.757812 188.410156 90.277344 188.410156 90.277344 188.410156 C 109.546875 187.371094 136.105469 188.410156 155.371094 188.410156 C 156.414062 188.410156 156.933594 188.410156 156.933594 190.488281 C 156.414062 191.53125 155.890625 194.128906 154.851562 195.167969 C 154.851562 194.648438 155.371094 192.570312 155.371094 191.011719 C 155.371094 189.96875 155.371094 189.96875 154.851562 189.96875 Z M 142.351562 185.292969 C 123.605469 184.769531 112.671875 185.8125 115.273438 184.25 C 119.960938 182.171875 120.480469 181.652344 124.125 180.09375 C 118.917969 181.652344 111.109375 185.292969 111.109375 185.292969 C 94.964844 186.851562 88.714844 186.332031 92.882812 183.730469 C 100.171875 181.132812 111.109375 179.570312 127.25 179.050781 C 153.289062 178.53125 169.953125 178.53125 176.199219 179.050781 C 177.242188 179.050781 178.285156 178.53125 179.324219 180.09375 C 177.242188 180.613281 173.078125 182.171875 170.992188 184.25 C 169.953125 185.292969 169.953125 185.292969 167.867188 185.292969 C 152.246094 185.292969 146.519531 185.292969 148.082031 185.292969 C 144.4375 184.769531 155.371094 181.132812 155.371094 181.132812 C 147.039062 183.210938 142.351562 185.292969 142.351562 185.292969 Z M 173.078125 211.285156 L 175.160156 209.726562 C 175.679688 209.207031 175.679688 208.6875 175.160156 208.167969 L 174.640625 207.648438 L 175.160156 205.046875 L 176.199219 206.609375 C 176.722656 206.609375 177.242188 206.609375 177.242188 206.085938 L 177.242188 200.367188 C 177.761719 198.289062 178.804688 194.648438 181.410156 195.167969 C 182.96875 196.210938 184.011719 197.25 185.054688 198.808594 C 187.136719 202.449219 187.65625 206.609375 187.136719 210.765625 C 186.09375 216.484375 183.492188 222.203125 177.761719 222.726562 C 175.160156 222.726562 171.515625 220.644531 170.472656 217.527344 C 170.992188 217.003906 171.515625 215.964844 172.035156 214.925781 Z M 170.472656 205.566406 L 139.226562 204.527344 L 167.347656 204.007812 C 173.078125 203.488281 173.597656 202.449219 175.160156 198.289062 C 175.160156 197.769531 176.722656 194.648438 176.722656 194.648438 C 178.804688 190.488281 181.929688 189.449219 182.96875 195.167969 C 179.847656 191.53125 177.761719 195.167969 176.722656 197.769531 C 175.679688 200.367188 174.640625 205.566406 170.472656 205.566406 Z M 194.949219 200.886719 C 194.949219 199.328125 194.949219 198.289062 194.425781 198.289062 C 194.949219 197.25 195.46875 196.730469 195.988281 196.210938 C 195.988281 198.808594 195.988281 202.96875 195.988281 205.566406 C 195.46875 209.207031 194.949219 209.726562 194.949219 207.648438 C 194.425781 206.085938 194.425781 205.046875 194.425781 203.488281 C 194.949219 203.488281 194.949219 202.449219 194.949219 200.886719 Z M 163.183594 197.25 C 161.621094 196.730469 161.097656 195.167969 161.097656 193.609375 C 161.097656 195.167969 162.140625 196.210938 163.183594 196.730469 C 164.222656 197.769531 165.785156 197.769531 166.828125 196.730469 C 168.390625 196.210938 168.910156 195.167969 168.910156 193.609375 C 168.910156 195.167969 168.390625 196.730469 167.347656 197.25 C 165.785156 198.289062 164.222656 198.289062 163.183594 197.25 Z M 164.746094 194.128906 C 164.746094 194.128906 164.746094 194.128906 164.222656 194.128906 C 164.222656 193.609375 164.222656 193.609375 164.222656 193.609375 C 164.222656 193.089844 164.222656 193.089844 164.222656 193.089844 C 164.222656 193.089844 164.222656 193.089844 164.222656 193.609375 C 164.222656 193.609375 164.746094 194.128906 164.746094 194.128906 Z M 165.265625 194.128906 C 165.265625 194.128906 165.265625 193.609375 165.265625 193.089844 C 165.265625 193.089844 165.265625 192.570312 164.746094 192.570312 C 164.746094 192.570312 164.222656 192.570312 164.222656 192.570312 C 164.222656 192.050781 164.746094 192.050781 165.265625 192.050781 C 165.785156 192.050781 166.308594 192.570312 166.308594 193.089844 C 166.308594 193.609375 165.785156 194.128906 165.265625 194.128906 Z M 169.429688 194.648438 C 169.953125 193.089844 168.910156 191.011719 167.347656 189.96875 C 165.785156 188.929688 163.703125 188.929688 162.140625 189.96875 C 161.097656 191.011719 160.058594 193.089844 160.578125 194.648438 C 160.058594 193.089844 160.578125 190.488281 162.140625 189.449219 C 163.703125 187.890625 166.308594 187.890625 167.867188 189.449219 C 169.429688 190.488281 169.953125 193.089844 169.429688 194.648438 Z M 194.425781 186.851562 C 194.949219 186.851562 194.949219 186.332031 194.949219 185.8125 L 195.988281 185.8125 C 195.988281 185.292969 195.988281 184.769531 195.46875 184.25 C 197.03125 186.851562 197.03125 191.53125 195.46875 195.167969 C 195.46875 194.648438 195.988281 194.128906 195.988281 193.609375 L 194.949219 193.609375 C 194.425781 193.089844 194.425781 193.089844 194.425781 192.570312 L 195.988281 192.570312 C 195.988281 192.570312 195.988281 192.050781 195.988281 192.050781 L 194.425781 192.050781 C 194.425781 191.53125 194.425781 191.53125 194.425781 191.011719 L 195.988281 191.011719 C 195.988281 191.011719 195.988281 190.488281 195.988281 190.488281 L 194.425781 190.488281 C 194.425781 189.96875 194.425781 189.96875 194.425781 189.96875 C 194.425781 189.449219 194.425781 189.449219 194.425781 189.449219 L 195.988281 189.449219 C 195.988281 188.929688 196.511719 188.929688 196.511719 188.410156 L 194.425781 188.410156 C 194.425781 188.410156 194.425781 187.890625 194.425781 187.890625 L 195.988281 187.890625 C 195.988281 187.371094 195.988281 187.371094 195.988281 186.851562 Z M 93.402344 201.410156 L 82.988281 200.886719 C 82.46875 200.886719 81.945312 201.410156 81.945312 201.929688 C 80.90625 200.367188 81.425781 199.328125 82.988281 198.808594 C 82.46875 199.328125 82.988281 199.847656 83.507812 199.847656 Z M 87.152344 188.929688 C 88.195312 190.488281 88.714844 192.570312 88.195312 194.648438 C 88.714844 192.570312 88.195312 191.011719 86.632812 189.449219 C 85.589844 188.410156 83.507812 187.890625 82.46875 188.929688 C 80.90625 189.96875 80.382812 191.53125 80.90625 193.089844 C 79.863281 191.53125 80.382812 189.449219 81.945312 188.410156 C 83.507812 187.371094 85.589844 187.371094 87.152344 188.929688 Z M 86.632812 196.730469 C 85.070312 197.25 83.507812 197.25 82.46875 196.210938 C 81.425781 195.167969 80.90625 193.609375 81.425781 192.050781 C 80.90625 193.609375 81.945312 194.648438 82.988281 195.6875 C 84.03125 196.210938 85.070312 196.730469 86.113281 196.210938 C 87.152344 195.6875 87.675781 194.648438 87.675781 193.089844 C 88.195312 194.648438 87.675781 196.210938 86.632812 196.730469 Z M 193.90625 182.171875 C 192.863281 182.171875 192.34375 182.171875 191.300781 182.171875 C 191.300781 181.132812 191.300781 180.613281 190.78125 180.09375 C 191.300781 180.09375 191.824219 180.09375 192.863281 180.09375 C 193.90625 181.652344 194.425781 182.171875 193.90625 182.171875 Z M 141.3125 217.527344 L 167.347656 215.964844 C 167.867188 215.964844 169.429688 215.964844 169.953125 214.40625 L 172.554688 210.765625 L 170.472656 214.40625 C 169.953125 215.964844 168.910156 216.484375 168.390625 216.484375 C 156.933594 217.003906 148.082031 217.527344 141.3125 217.527344 Z M 85.589844 192.570312 C 85.589844 193.089844 85.070312 193.089844 84.550781 193.089844 C 84.550781 193.089844 85.070312 192.570312 85.070312 192.570312 C 85.070312 192.050781 84.550781 192.050781 84.550781 191.53125 C 84.03125 191.53125 84.03125 191.53125 83.507812 191.53125 C 84.03125 191.011719 84.03125 191.011719 84.550781 191.011719 C 85.070312 191.011719 85.589844 192.050781 85.589844 192.570312 Z M 84.03125 192.050781 C 84.03125 192.050781 83.507812 192.050781 84.03125 192.570312 C 84.03125 192.570312 84.03125 193.089844 84.550781 193.089844 C 84.03125 193.089844 84.03125 193.089844 84.03125 192.570312 C 83.507812 192.570312 83.507812 192.570312 83.507812 192.050781 C 83.507812 192.050781 83.507812 192.050781 84.03125 192.050781 Z M 84.03125 192.050781 " fill-opacity="1" fill-rule="evenodd"/></g><g fill="#ffb200" fill-opacity="1"><g transform="translate(92.901348, 147.103262)"><g><path d="M 0.296875 0 C 0.0976562 0 0 -0.0976562 0 -0.296875 L 0 -11.546875 C 0 -12.390625 0.28125 -13.09375 0.84375 -13.65625 C 1.40625 -14.21875 2.109375 -14.5 2.953125 -14.5 L 11.546875 -14.5 C 12.085938 -14.5 12.585938 -14.375 13.046875 -14.125 C 13.515625 -14.375 14.019531 -14.5 14.5625 -14.5 L 23.140625 -14.5 C 23.992188 -14.5 24.695312 -14.21875 25.25 -13.65625 C 25.8125 -13.09375 26.09375 -12.390625 26.09375 -11.546875 L 26.09375 -0.296875 C 26.09375 -0.0976562 26 0 25.8125 0 L 23.484375 0 C 23.296875 0 23.203125 -0.0976562 23.203125 -0.296875 L 23.203125 -11.015625 C 23.203125 -11.171875 23.144531 -11.304688 23.03125 -11.421875 C 22.914062 -11.535156 22.78125 -11.59375 22.625 -11.59375 L 15.078125 -11.59375 C 14.921875 -11.59375 14.785156 -11.535156 14.671875 -11.421875 C 14.554688 -11.304688 14.5 -11.171875 14.5 -11.015625 L 14.5 -0.296875 C 14.5 -0.0976562 14.398438 0 14.203125 0 L 11.890625 0 C 11.691406 0 11.59375 -0.0976562 11.59375 -0.296875 L 11.59375 -11.015625 C 11.59375 -11.171875 11.535156 -11.304688 11.421875 -11.421875 C 11.304688 -11.535156 11.171875 -11.59375 11.015625 -11.59375 L 3.484375 -11.59375 C 3.328125 -11.59375 3.191406 -11.535156 3.078125 -11.421875 C 2.960938 -11.304688 2.90625 -11.171875 2.90625 -11.015625 L 2.90625 -0.296875 C 2.90625 -0.0976562 2.804688 0 2.609375 0 Z M 0.296875 0 "/></g></g></g><g fill="#ffb200" fill-opacity="1"><g transform="translate(124.068523, 147.103262)"><g><path d="M 2.953125 0 C 2.109375 0 1.40625 -0.28125 0.84375 -0.84375 C 0.28125 -1.40625 0 -2.109375 0 -2.953125 L 0 -11.546875 C 0 -12.390625 0.28125 -13.09375 0.84375 -13.65625 C 1.40625 -14.21875 2.109375 -14.5 2.953125 -14.5 L 20.015625 -14.5 C 20.203125 -14.5 20.296875 -14.398438 20.296875 -14.203125 L 20.296875 -11.890625 C 20.296875 -11.691406 20.203125 -11.59375 20.015625 -11.59375 L 3.484375 -11.59375 C 3.328125 -11.59375 3.191406 -11.535156 3.078125 -11.421875 C 2.960938 -11.304688 2.90625 -11.171875 2.90625 -11.015625 L 2.90625 -8.703125 L 18.625 -8.703125 C 18.851562 -8.703125 18.96875 -8.601562 18.96875 -8.40625 L 18.96875 -6.09375 C 18.96875 -5.894531 18.851562 -5.796875 18.625 -5.796875 L 2.90625 -5.796875 L 2.90625 -3.484375 C 2.90625 -3.328125 2.960938 -3.191406 3.078125 -3.078125 C 3.191406 -2.960938 3.328125 -2.90625 3.484375 -2.90625 L 20.015625 -2.90625 C 20.203125 -2.90625 20.296875 -2.804688 20.296875 -2.609375 L 20.296875 -0.296875 C 20.296875 -0.0976562 20.203125 0 20.015625 0 Z M 2.953125 0 "/></g></g></g><g fill="#ffb200" fill-opacity="1"><g transform="translate(149.437263, 147.103262)"><g><path d="M 2.953125 0 C 2.109375 0 1.40625 -0.28125 0.84375 -0.84375 C 0.28125 -1.40625 0 -2.109375 0 -2.953125 L 0 -11.546875 C 0 -12.390625 0.28125 -13.09375 0.84375 -13.65625 C 1.40625 -14.21875 2.109375 -14.5 2.953125 -14.5 L 20.015625 -14.5 C 20.203125 -14.5 20.296875 -14.398438 20.296875 -14.203125 L 20.296875 -11.890625 C 20.296875 -11.691406 20.203125 -11.59375 20.015625 -11.59375 L 3.484375 -11.59375 C 3.328125 -11.59375 3.191406 -11.535156 3.078125 -11.421875 C 2.960938 -11.304688 2.90625 -11.171875 2.90625 -11.015625 L 2.90625 -3.484375 C 2.90625 -3.328125 2.960938 -3.191406 3.078125 -3.078125 C 3.191406 -2.960938 3.328125 -2.90625 3.484375 -2.90625 L 16.8125 -2.90625 C 16.96875 -2.90625 17.101562 -2.960938 17.21875 -3.078125 C 17.34375 -3.191406 17.40625 -3.328125 17.40625 -3.484375 L 17.40625 -5.796875 L 6.09375 -5.796875 C 5.894531 -5.796875 5.796875 -5.894531 5.796875 -6.09375 L 5.796875 -8.40625 C 5.796875 -8.601562 5.894531 -8.703125 6.09375 -8.703125 L 20.015625 -8.703125 C 20.203125 -8.703125 20.296875 -8.601562 20.296875 -8.40625 L 20.296875 -2.953125 C 20.296875 -2.109375 20.015625 -1.40625 19.453125 -0.84375 C 18.898438 -0.28125 18.195312 0 17.34375 0 Z M 2.953125 0 "/></g></g></g><g fill="#ffb200" fill-opacity="1"><g transform="translate(174.806003, 147.103262)"><g><path d="M 0.296875 0 C 0.0976562 0 0 -0.0976562 0 -0.296875 L 0 -11.546875 C 0 -12.390625 0.28125 -13.09375 0.84375 -13.65625 C 1.40625 -14.21875 2.109375 -14.5 2.953125 -14.5 L 17.34375 -14.5 C 18.195312 -14.5 18.898438 -14.21875 19.453125 -13.65625 C 20.015625 -13.09375 20.296875 -12.390625 20.296875 -11.546875 L 20.296875 -0.296875 C 20.296875 -0.0976562 20.203125 0 20.015625 0 L 17.6875 0 C 17.5 0 17.40625 -0.0976562 17.40625 -0.296875 L 17.40625 -5.796875 L 2.90625 -5.796875 L 2.90625 -0.296875 C 2.90625 -0.0976562 2.804688 0 2.609375 0 Z M 2.90625 -8.703125 L 17.40625 -8.703125 L 17.40625 -11.015625 C 17.40625 -11.171875 17.34375 -11.304688 17.21875 -11.421875 C 17.101562 -11.535156 16.96875 -11.59375 16.8125 -11.59375 L 3.484375 -11.59375 C 3.328125 -11.59375 3.191406 -11.535156 3.078125 -11.421875 C 2.960938 -11.304688 2.90625 -11.171875 2.90625 -11.015625 Z M 2.90625 -8.703125 "/></g></g></g><g fill="#ffb200" fill-opacity="1"><g transform="translate(200.174743, 147.103262)"><g><path d="M 2.953125 0 C 2.109375 0 1.40625 -0.28125 0.84375 -0.84375 C 0.28125 -1.40625 0 -2.109375 0 -2.953125 L 0 -11.546875 C 0 -12.390625 0.28125 -13.09375 0.84375 -13.65625 C 1.40625 -14.21875 2.109375 -14.5 2.953125 -14.5 L 20.015625 -14.5 C 20.203125 -14.5 20.296875 -14.398438 20.296875 -14.203125 L 20.296875 -11.890625 C 20.296875 -11.691406 20.203125 -11.59375 20.015625 -11.59375 L 3.484375 -11.59375 C 3.328125 -11.59375 3.191406 -11.535156 3.078125 -11.421875 C 2.960938 -11.304688 2.90625 -11.171875 2.90625 -11.015625 L 2.90625 -3.484375 C 2.90625 -3.328125 2.960938 -3.191406 3.078125 -3.078125 C 3.191406 -2.960938 3.328125 -2.90625 3.484375 -2.90625 L 20.015625 -2.90625 C 20.203125 -2.90625 20.296875 -2.804688 20.296875 -2.609375 L 20.296875 -0.296875 C 20.296875 -0.0976562 20.203125 0 20.015625 0 Z M 2.953125 0 "/></g></g></g><g fill="#ffb200" fill-opacity="1"><g transform="translate(225.543489, 147.103262)"><g><path d="M 0.296875 0 C 0.0976562 0 0 -0.0976562 0 -0.296875 L 0 -14.203125 C 0 -14.398438 0.0976562 -14.5 0.296875 -14.5 L 2.609375 -14.5 C 2.804688 -14.5 2.90625 -14.398438 2.90625 -14.203125 L 2.90625 -0.296875 C 2.90625 -0.0976562 2.804688 0 2.609375 0 Z M 0.296875 0 "/></g></g></g><g fill="#ffb200" fill-opacity="1"><g transform="translate(233.51693, 147.103262)"><g><path d="M 8.984375 0 C 8.796875 0 8.703125 -0.0976562 8.703125 -0.296875 L 8.703125 -11.59375 L 0.296875 -11.59375 C 0.0976562 -11.59375 0 -11.691406 0 -11.890625 L 0 -14.203125 C 0 -14.398438 0.0976562 -14.5 0.296875 -14.5 L 20.015625 -14.5 C 20.203125 -14.5 20.296875 -14.398438 20.296875 -14.203125 L 20.296875 -11.890625 C 20.296875 -11.691406 20.203125 -11.59375 20.015625 -11.59375 L 11.59375 -11.59375 L 11.59375 -0.296875 C 11.59375 -0.0976562 11.5 0 11.3125 0 Z M 8.984375 0 "/></g></g></g><g fill="#ffb200" fill-opacity="1"><g transform="translate(258.885665, 147.103262)"><g><path d="M 0.296875 0 C 0.0976562 0 0 -0.0976562 0 -0.296875 L 0 -2.609375 C 0 -2.804688 0.0976562 -2.90625 0.296875 -2.90625 L 16.8125 -2.90625 C 16.96875 -2.90625 17.101562 -2.960938 17.21875 -3.078125 C 17.34375 -3.191406 17.40625 -3.328125 17.40625 -3.484375 L 17.40625 -5.796875 L 2.953125 -5.796875 C 2.109375 -5.796875 1.40625 -6.078125 0.84375 -6.640625 C 0.28125 -7.203125 0 -7.910156 0 -8.765625 L 0 -14.203125 C 0 -14.398438 0.0976562 -14.5 0.296875 -14.5 L 2.609375 -14.5 C 2.804688 -14.5 2.90625 -14.398438 2.90625 -14.203125 L 2.90625 -9.28125 C 2.90625 -9.125 2.960938 -8.988281 3.078125 -8.875 C 3.191406 -8.757812 3.328125 -8.703125 3.484375 -8.703125 L 17.40625 -8.703125 L 17.40625 -14.203125 C 17.40625 -14.398438 17.5 -14.5 17.6875 -14.5 L 20.015625 -14.5 C 20.203125 -14.5 20.296875 -14.398438 20.296875 -14.203125 L 20.296875 -2.953125 C 20.296875 -2.109375 20.015625 -1.40625 19.453125 -0.84375 C 18.898438 -0.28125 18.195312 0 17.34375 0 Z M 0.296875 0 "/></g></g></g><g fill="#ffb200" fill-opacity="1"><g transform="translate(89.350825, 248.146712)"><g><path d="M 5.3125 -0.921875 L 2.03125 -0.921875 L 2.03125 -8.6875 L 0.984375 -8.6875 L 0.984375 0 L 5.3125 0 Z M 5.3125 -0.921875 "/></g></g></g><g fill="#ffb200" fill-opacity="1"><g transform="translate(101.958886, 248.146712)"><g><path d="M 5.015625 0.09375 C 5.898438 0.09375 6.4375 -0.191406 6.625 -0.765625 C 6.6875 -0.953125 6.71875 -1.175781 6.71875 -1.4375 L 6.71875 -8.6875 L 5.640625 -8.6875 L 5.640625 -0.984375 C 5.617188 -0.910156 5.578125 -0.867188 5.515625 -0.859375 L 2.046875 -0.859375 C 1.972656 -0.878906 1.929688 -0.921875 1.921875 -0.984375 L 1.921875 -8.6875 L 0.84375 -8.6875 L 0.84375 -1.4375 C 0.84375 -0.632812 1.160156 -0.148438 1.796875 0.015625 C 2.003906 0.0664062 2.253906 0.09375 2.546875 0.09375 Z M 5.015625 0.09375 "/></g></g></g><g fill="#ffb200" fill-opacity="1"><g transform="translate(116.753226, 248.146712)"><g><path d="M 4.359375 -4.984375 C 4.328125 -4.898438 4.28125 -4.859375 4.21875 -4.859375 L 3.34375 -4.859375 C 3.28125 -4.859375 3.226562 -4.898438 3.1875 -4.984375 L 1.4375 -8.703125 L 0.28125 -8.703125 L 1.828125 -5.484375 C 2.066406 -4.941406 2.289062 -4.601562 2.5 -4.46875 C 2.550781 -4.445312 2.59375 -4.425781 2.625 -4.40625 C 2.40625 -4.289062 2.1875 -4.023438 1.96875 -3.609375 C 1.9375 -3.535156 1.890625 -3.441406 1.828125 -3.328125 L 0.140625 -0.015625 L 1.21875 -0.015625 L 3.125 -3.828125 C 3.195312 -3.898438 3.253906 -3.9375 3.296875 -3.9375 L 4.171875 -3.9375 C 4.242188 -3.914062 4.296875 -3.878906 4.328125 -3.828125 L 6.234375 0 L 7.390625 0 L 5.640625 -3.328125 C 5.367188 -3.847656 5.160156 -4.164062 5.015625 -4.28125 C 4.960938 -4.320312 4.910156 -4.359375 4.859375 -4.390625 C 5.066406 -4.492188 5.269531 -4.742188 5.46875 -5.140625 C 5.507812 -5.203125 5.566406 -5.3125 5.640625 -5.46875 L 7.203125 -8.6875 L 6.140625 -8.6875 Z M 4.359375 -4.984375 "/></g></g></g><g fill="#ffb200" fill-opacity="1"><g transform="translate(131.506573, 248.146712)"><g><path d="M 5.015625 0.09375 C 5.898438 0.09375 6.4375 -0.191406 6.625 -0.765625 C 6.6875 -0.953125 6.71875 -1.175781 6.71875 -1.4375 L 6.71875 -8.6875 L 5.640625 -8.6875 L 5.640625 -0.984375 C 5.617188 -0.910156 5.578125 -0.867188 5.515625 -0.859375 L 2.046875 -0.859375 C 1.972656 -0.878906 1.929688 -0.921875 1.921875 -0.984375 L 1.921875 -8.6875 L 0.84375 -8.6875 L 0.84375 -1.4375 C 0.84375 -0.632812 1.160156 -0.148438 1.796875 0.015625 C 2.003906 0.0664062 2.253906 0.09375 2.546875 0.09375 Z M 5.015625 0.09375 "/></g></g></g><g fill="#ffb200" fill-opacity="1"><g transform="translate(146.300913, 248.146712)"><g><path d="M 2.0625 0 L 2.046875 -3.5625 L 4.265625 -3.5625 C 4.378906 -3.5625 4.453125 -3.515625 4.484375 -3.421875 L 5.65625 0 L 6.734375 0 L 5.734375 -2.84375 C 5.597656 -3.226562 5.441406 -3.5 5.265625 -3.65625 C 6.054688 -3.84375 6.457031 -4.378906 6.46875 -5.265625 L 6.46875 -7.0625 C 6.445312 -8.1875 5.84375 -8.742188 4.65625 -8.734375 L 1.015625 -8.6875 L 1.015625 0 Z M 5.203125 -7.828125 C 5.304688 -7.804688 5.363281 -7.742188 5.375 -7.640625 L 5.375 -4.640625 C 5.351562 -4.523438 5.296875 -4.460938 5.203125 -4.453125 L 2.046875 -4.453125 L 2.046875 -7.828125 Z M 5.203125 -7.828125 "/></g></g></g><g fill="#ffb200" fill-opacity="1"><g transform="translate(160.767308, 248.146712)"><g><path d="M 4.09375 0 L 4.09375 -3.140625 C 4.46875 -3.179688 4.738281 -3.34375 4.90625 -3.625 C 4.988281 -3.769531 5.097656 -4.003906 5.234375 -4.328125 L 6.96875 -8.6875 L 5.90625 -8.6875 L 4.125 -4.171875 C 4.09375 -4.085938 4.046875 -4.046875 3.984375 -4.046875 L 3.234375 -4.046875 C 3.160156 -4.066406 3.109375 -4.109375 3.078125 -4.171875 L 1.28125 -8.703125 L 0.171875 -8.703125 L 1.90625 -4.328125 C 2.113281 -3.796875 2.328125 -3.460938 2.546875 -3.328125 C 2.679688 -3.242188 2.847656 -3.1875 3.046875 -3.15625 L 3.046875 0 Z M 4.09375 0 "/></g></g></g><g fill="#ffb200" fill-opacity="1"><g transform="translate(175.151717, 248.146712)"><g/></g></g><g fill="#ffb200" fill-opacity="1"><g transform="translate(185.122576, 248.146712)"><g><path d="M 5.578125 -0.9375 L 2.046875 -0.9375 C 1.960938 -0.9375 1.921875 -0.976562 1.921875 -1.0625 L 1.921875 -7.609375 C 1.921875 -7.691406 1.960938 -7.734375 2.046875 -7.734375 L 5.578125 -7.734375 L 5.578125 -8.6875 L 2.53125 -8.6875 C 1.65625 -8.6875 1.125 -8.414062 0.9375 -7.875 C 0.863281 -7.675781 0.828125 -7.441406 0.828125 -7.171875 L 0.828125 -1.515625 C 0.828125 -0.722656 1.148438 -0.242188 1.796875 -0.078125 C 2.003906 -0.0234375 2.25 0 2.53125 0 L 5.578125 0 Z M 5.578125 -0.9375 "/></g></g></g><g fill="#ffb200" fill-opacity="1"><g transform="translate(198.236211, 248.146712)"><g><path d="M 7.03125 0 L 4.875 -8.6875 L 3.765625 -8.703125 C 3.210938 -8.703125 2.84375 -8.59375 2.65625 -8.375 C 2.53125 -8.207031 2.398438 -7.894531 2.265625 -7.4375 L 0.171875 0 L 1.15625 0 L 1.78125 -2.296875 L 5.40625 -2.296875 L 5.96875 0 Z M 3.234375 -7.65625 C 3.265625 -7.726562 3.3125 -7.769531 3.375 -7.78125 L 4.09375 -7.78125 L 5.203125 -3.203125 L 2.03125 -3.203125 Z M 3.234375 -7.65625 "/></g></g></g><g fill="#ffb200" fill-opacity="1"><g transform="translate(212.64795, 248.146712)"><g><path d="M 2.0625 0 L 2.046875 -3.5625 L 4.265625 -3.5625 C 4.378906 -3.5625 4.453125 -3.515625 4.484375 -3.421875 L 5.65625 0 L 6.734375 0 L 5.734375 -2.84375 C 5.597656 -3.226562 5.441406 -3.5 5.265625 -3.65625 C 6.054688 -3.84375 6.457031 -4.378906 6.46875 -5.265625 L 6.46875 -7.0625 C 6.445312 -8.1875 5.84375 -8.742188 4.65625 -8.734375 L 1.015625 -8.6875 L 1.015625 0 Z M 5.203125 -7.828125 C 5.304688 -7.804688 5.363281 -7.742188 5.375 -7.640625 L 5.375 -4.640625 C 5.351562 -4.523438 5.296875 -4.460938 5.203125 -4.453125 L 2.046875 -4.453125 L 2.046875 -7.828125 Z M 5.203125 -7.828125 "/></g></g></g><g fill="#ffb200" fill-opacity="1"><g transform="translate(227.114345, 248.146712)"><g/></g></g><g fill="#ffb200" fill-opacity="1"><g transform="translate(237.085203, 248.146712)"><g><path d="M 2.0625 0 L 2.046875 -3.5625 L 4.265625 -3.5625 C 4.378906 -3.5625 4.453125 -3.515625 4.484375 -3.421875 L 5.65625 0 L 6.734375 0 L 5.734375 -2.84375 C 5.597656 -3.226562 5.441406 -3.5 5.265625 -3.65625 C 6.054688 -3.84375 6.457031 -4.378906 6.46875 -5.265625 L 6.46875 -7.0625 C 6.445312 -8.1875 5.84375 -8.742188 4.65625 -8.734375 L 1.015625 -8.6875 L 1.015625 0 Z M 5.203125 -7.828125 C 5.304688 -7.804688 5.363281 -7.742188 5.375 -7.640625 L 5.375 -4.640625 C 5.351562 -4.523438 5.296875 -4.460938 5.203125 -4.453125 L 2.046875 -4.453125 L 2.046875 -7.828125 Z M 5.203125 -7.828125 "/></g></g></g><g fill="#ffb200" fill-opacity="1"><g transform="translate(251.551599, 248.146712)"><g><path d="M 5.8125 0 L 5.8125 -0.921875 L 2.03125 -0.921875 L 2.03125 -3.96875 L 5.515625 -3.96875 L 5.515625 -4.875 L 2.03125 -4.875 L 2.03125 -7.765625 L 5.75 -7.765625 L 5.75 -8.6875 L 0.984375 -8.6875 L 0.984375 0 Z M 5.8125 0 "/></g></g></g><g fill="#ffb200" fill-opacity="1"><g transform="translate(265.061497, 248.146712)"><g><path d="M 6.109375 0 L 6.84375 0 L 6.84375 -8.6875 L 5.921875 -8.6875 L 5.921875 -2.015625 L 1.65625 -8.6875 L 0.9375 -8.6875 L 0.9375 0 L 1.859375 0 L 1.859375 -6.6875 Z M 6.109375 0 "/></g></g></g><g fill="#ffb200" fill-opacity="1"><g transform="translate(280.074462, 248.146712)"><g><path d="M 3.3125 0 L 3.3125 -7.765625 L 5.5 -7.765625 L 5.5 -8.6875 L 0.0625 -8.6875 L 0.0625 -7.765625 L 2.25 -7.765625 L 2.25 0 Z M 3.3125 0 "/></g></g></g></svg>