<svg xmlns="http://www.w3.org/2000/svg" xmlns:xlink="http://www.w3.org/1999/xlink" width="500" zoomAndPan="magnify" viewBox="0 0 375 374.999991" height="500" preserveAspectRatio="xMidYMid meet" version="1.0"><defs><g/><clipPath id="5da27cf851"><path d="M 190.449219 170.417969 L 296 170.417969 L 296 215.417969 L 190.449219 215.417969 Z M 190.449219 170.417969 " clip-rule="nonzero"/></clipPath><clipPath id="273a60b8df"><path d="M 79 162 L 198 162 L 198 226.378906 L 79 226.378906 Z M 79 162 " clip-rule="nonzero"/></clipPath></defs><g clip-path="url(#5da27cf851)"><path fill="#ffb200" d="M 281.175781 212.632812 C 281.886719 212.734375 282.445312 212.835938 282.847656 212.835938 C 286.195312 213.140625 289.539062 213.496094 292.882812 213.953125 C 293.492188 214.054688 295.0625 214.15625 295.519531 214.558594 C 295.570312 214.609375 295.570312 214.609375 295.519531 214.660156 C 295.265625 214.761719 295.113281 214.863281 295.011719 214.863281 C 293.136719 215.066406 291.210938 215.167969 289.285156 215.167969 C 273.167969 215.371094 257.003906 214.8125 240.9375 214.003906 C 238.808594 213.902344 235.464844 213.648438 230.851562 213.292969 C 213.367188 211.875 196.792969 210.40625 181.132812 208.984375 C 180.324219 208.933594 179.714844 208.882812 179.257812 208.832031 C 181.035156 208.78125 182.757812 208.730469 184.53125 208.679688 C 184.582031 208.679688 184.582031 208.679688 184.53125 208.628906 C 182.046875 207.058594 180.832031 204.476562 180.425781 201.585938 C 180.425781 201.484375 180.375 201.433594 180.273438 201.382812 L 177.535156 199.8125 C 177.382812 199.710938 177.332031 199.507812 177.433594 199.355469 C 178.042969 198.445312 178.601562 197.9375 178.398438 196.773438 C 178.195312 195.605469 178.042969 194.492188 177.839844 193.375 C 177.636719 192.210938 177.535156 191.347656 177.535156 190.792969 C 177.585938 188.664062 178.347656 186.128906 178.855469 184.40625 C 179.109375 183.492188 179.207031 182.785156 180.121094 182.378906 C 180.933594 182.023438 181.691406 181.820312 182.453125 181.71875 C 184.53125 181.464844 186.8125 181.3125 189.292969 181.261719 C 191.726562 181.214844 194.007812 181.164062 196.1875 181.363281 C 198.46875 181.566406 200.496094 182.632812 202.574219 183.644531 C 202.824219 183.796875 203.433594 183.796875 203.789062 183.796875 C 213.722656 183.898438 222.539062 183.796875 233.589844 183.847656 C 237.085938 183.847656 240.277344 183.949219 243.117188 184.101562 C 251.074219 184.558594 258.777344 186.128906 266.277344 188.867188 C 267.039062 189.117188 267.847656 189.523438 268.609375 189.828125 C 268.660156 189.828125 268.660156 189.828125 268.660156 189.777344 C 268.660156 189.777344 268.660156 189.726562 268.660156 189.726562 C 260.90625 184.964844 251.679688 182.886719 242.710938 182.835938 C 236.730469 182.785156 231.914062 182.785156 228.265625 182.835938 C 228.113281 182.835938 228.0625 182.785156 227.964844 182.734375 C 226.238281 180.65625 224.464844 178.679688 222.640625 176.703125 C 220.765625 174.675781 218.839844 173.054688 215.953125 172.75 C 208.25 171.988281 199.886719 175.535156 193.398438 179.792969 C 193.398438 179.792969 193.347656 179.792969 193.347656 179.84375 C 193.296875 179.894531 193.347656 179.894531 193.347656 179.84375 C 199.125 176.449219 206.019531 173.410156 212.808594 173.054688 C 215.039062 172.953125 217.371094 173.207031 219.296875 174.421875 C 220.257812 175.082031 221.375 175.992188 222.589844 177.3125 C 224.261719 179.085938 225.835938 180.910156 227.40625 182.734375 C 227.40625 182.734375 227.40625 182.785156 227.40625 182.785156 C 222.945312 182.785156 218.433594 182.785156 213.976562 182.785156 C 210.933594 182.785156 207.894531 182.886719 204.800781 182.785156 C 203.890625 182.734375 202.671875 182.023438 201.863281 181.617188 C 200.695312 181.0625 199.683594 180.65625 198.570312 180.605469 C 196.339844 180.503906 193.804688 180.503906 190.867188 180.707031 C 190.816406 180.707031 190.816406 180.707031 190.867188 180.65625 C 198.46875 175.433594 206.324219 171.683594 215.496094 170.976562 C 223.046875 170.417969 231.308594 170.925781 239.0625 171.988281 C 239.921875 172.089844 240.835938 172.292969 241.796875 172.597656 C 248.234375 174.421875 254.570312 177.917969 259.890625 181.0625 C 259.992188 181.113281 259.992188 181.164062 259.890625 181.164062 C 259.132812 181.113281 258.320312 181.0625 257.609375 181.0625 C 253.253906 181.011719 248.84375 181.0625 244.484375 181.113281 C 244.484375 181.113281 244.433594 181.113281 244.484375 181.164062 C 244.484375 181.164062 244.484375 181.164062 244.484375 181.214844 C 249.097656 181.464844 253.707031 181.820312 258.320312 182.277344 C 268.660156 183.289062 278.746094 185.621094 288.324219 189.625 C 288.324219 189.625 288.375 189.625 288.375 189.625 C 288.425781 189.625 288.425781 189.574219 288.375 189.574219 C 285.179688 187.75 281.886719 186.128906 278.492188 184.660156 C 278.289062 184.558594 278.289062 184.507812 278.542969 184.507812 C 284.167969 184.558594 290.855469 185.117188 294.152344 190.488281 C 294.203125 190.539062 294.152344 190.589844 294.101562 190.589844 C 288.980469 191.296875 283.863281 192.160156 278.542969 191.855469 C 274.386719 191.601562 270.230469 191.195312 266.023438 190.84375 C 258.167969 190.234375 250.363281 189.320312 242.507812 188.5625 C 242.507812 188.5625 242.507812 188.5625 242.457031 188.5625 C 242.457031 188.5625 242.457031 188.5625 242.457031 188.613281 C 245.550781 189.929688 248.589844 191.296875 251.679688 192.617188 C 253.554688 193.425781 255.734375 194.339844 257.964844 194.441406 C 260.042969 194.542969 262.425781 194.644531 265.160156 194.644531 C 265.363281 194.644531 265.464844 194.695312 265.617188 194.492188 C 267.1875 192.617188 269.265625 191.753906 271.75 191.90625 C 273.929688 192.007812 276.058594 192.261719 278.1875 192.414062 C 280.871094 192.617188 283.40625 192.515625 286.042969 192.160156 C 287.15625 192.007812 287.917969 191.957031 288.324219 192.007812 C 289.894531 192.160156 291.058594 193.070312 291.769531 194.644531 C 291.769531 194.695312 291.820312 194.695312 291.871094 194.695312 L 295.316406 194.339844 C 295.367188 194.339844 295.367188 194.339844 295.367188 194.390625 L 295.671875 196.164062 C 295.671875 196.214844 295.621094 196.265625 295.570312 196.265625 C 289.03125 196.621094 282.445312 196.824219 275.90625 196.773438 C 268.40625 196.671875 261.714844 196.316406 254.925781 196.214844 C 254.925781 196.214844 254.925781 196.265625 254.925781 196.265625 C 255.128906 196.316406 255.28125 196.316406 255.480469 196.316406 C 261.917969 196.871094 268.304688 197.480469 274.742188 197.988281 C 277.324219 198.191406 279.65625 198.445312 282.140625 198.191406 C 286.398438 197.785156 292.023438 196.972656 295.671875 196.417969 C 295.722656 196.417969 295.722656 196.417969 295.773438 196.46875 L 295.976562 200.21875 C 295.976562 200.269531 295.925781 200.320312 295.875 200.320312 L 289.285156 201.179688 C 289.234375 201.179688 289.183594 201.230469 289.183594 201.28125 C 289.183594 201.28125 289.183594 201.332031 289.234375 201.332031 C 289.285156 201.382812 289.386719 201.433594 289.539062 201.433594 C 291.210938 201.332031 292.933594 201.179688 294.605469 201.027344 C 294.65625 201.027344 294.65625 201.027344 294.65625 201.078125 L 294.605469 202.347656 C 294.605469 202.398438 294.554688 202.398438 294.554688 202.398438 C 293.441406 202.347656 292.378906 202.5 291.464844 202.703125 C 287.410156 203.765625 284.773438 204.425781 283.660156 204.726562 C 281.886719 205.183594 280.621094 205.082031 278.695312 204.726562 C 275.449219 204.121094 272.207031 203.5625 268.914062 203.003906 C 268.253906 202.902344 267.59375 202.800781 266.886719 202.800781 C 262.476562 202.703125 258.015625 202.703125 253.605469 202.800781 C 253.554688 202.800781 253.554688 202.800781 253.503906 202.851562 C 253.503906 202.851562 253.453125 202.851562 253.453125 202.851562 C 253.40625 202.851562 253.40625 202.851562 253.453125 202.902344 C 253.453125 202.902344 253.503906 202.902344 253.503906 202.902344 C 253.503906 202.902344 253.554688 202.902344 253.554688 202.902344 C 257.457031 203.105469 261.308594 203.308594 265.210938 203.460938 C 265.921875 203.511719 266.582031 203.511719 267.339844 203.664062 C 270.992188 204.222656 274.691406 204.828125 278.339844 205.386719 C 280.570312 205.742188 281.632812 205.945312 283.457031 205.488281 C 287.613281 204.476562 290.300781 203.867188 291.464844 203.5625 C 292.328125 203.359375 295.164062 202.800781 295.773438 203.613281 C 296.128906 204.019531 295.925781 205.234375 295.875 205.792969 C 295.722656 207.414062 294.253906 207.71875 292.933594 207.871094 C 291.414062 208.074219 289.894531 208.226562 288.375 208.378906 C 288.324219 208.378906 288.273438 208.429688 288.273438 208.429688 C 286.699219 211.164062 284.320312 212.230469 281.175781 212.632812 C 281.074219 212.582031 281.074219 212.632812 281.175781 212.632812 Z M 187.113281 186.890625 C 190.5625 188.003906 192.941406 192.515625 194.109375 195.554688 C 194.109375 195.554688 194.160156 195.605469 194.160156 195.554688 C 194.160156 195.554688 194.160156 195.554688 194.160156 195.503906 C 193.5 191.652344 190.914062 184.152344 185.59375 185.265625 C 183.617188 185.671875 181.589844 187.394531 180.273438 189.019531 C 180.273438 189.019531 180.273438 189.019531 180.273438 189.066406 C 180.273438 189.066406 180.273438 189.066406 180.324219 189.066406 C 182.300781 187.496094 184.378906 186.027344 187.113281 186.890625 Z M 200.191406 187.597656 L 231.5625 193.375 C 231.613281 193.375 231.664062 193.375 231.664062 193.324219 C 232.167969 191.957031 232.878906 190.742188 233.792969 189.675781 C 233.792969 189.675781 233.792969 189.625 233.792969 189.574219 C 233.792969 189.574219 233.792969 189.574219 233.742188 189.574219 C 222.945312 188.917969 212.152344 188.257812 201.355469 187.648438 C 201 187.546875 200.597656 187.546875 200.191406 187.597656 C 200.191406 187.546875 200.191406 187.546875 200.191406 187.597656 C 200.191406 187.546875 200.191406 187.597656 200.191406 187.597656 Z M 183.261719 206.300781 C 184.023438 206.90625 184.785156 207.109375 185.644531 206.90625 C 187.0625 206.554688 188.128906 205.132812 188.636719 203.816406 C 189.597656 201.433594 189.851562 198.75 189.292969 196.265625 C 188.9375 194.59375 187.875 191.957031 185.949219 191.550781 C 183.566406 191.042969 181.945312 194.085938 181.4375 195.910156 C 180.628906 199 180.578125 204.121094 183.261719 206.300781 Z M 238.554688 211.214844 C 242 211.214844 244.839844 207.007812 244.839844 201.738281 C 244.890625 196.519531 242.101562 192.261719 238.65625 192.210938 C 235.210938 192.210938 232.371094 196.417969 232.371094 201.6875 C 232.320312 206.957031 235.109375 211.214844 238.554688 211.214844 Z M 199.632812 199.761719 C 207.285156 200.675781 214.9375 201.585938 222.589844 202.5 C 222.640625 202.5 222.640625 202.5 222.691406 202.5 C 222.742188 202.5 222.742188 202.449219 222.691406 202.449219 C 216.8125 201.484375 210.832031 200.675781 204.902344 199.863281 C 202.773438 199.558594 201.050781 199.457031 199.125 199.660156 C 199.023438 199.660156 199.023438 199.710938 199.125 199.710938 C 199.277344 199.710938 199.429688 199.761719 199.632812 199.761719 Z M 256.597656 201.128906 C 260.5 201.535156 264.503906 201.738281 268.710938 201.738281 C 268.761719 201.738281 268.761719 201.738281 268.8125 201.738281 C 268.863281 201.738281 268.863281 201.6875 268.863281 201.6875 C 268.863281 201.636719 268.863281 201.585938 268.8125 201.585938 C 264.808594 201.28125 260.652344 200.976562 256.648438 201.027344 C 255.632812 200.976562 255.632812 201.027344 256.597656 201.128906 Z M 200.597656 208.679688 C 210.933594 208.882812 221.222656 209.136719 231.5625 209.59375 C 232.21875 209.644531 232.878906 209.59375 233.589844 209.542969 C 233.640625 209.542969 233.691406 209.492188 233.640625 209.441406 C 233.640625 209.390625 233.589844 209.390625 233.539062 209.390625 C 233.234375 209.339844 232.929688 209.339844 232.625 209.339844 C 225.886719 209.238281 219.296875 207.820312 212.707031 206.605469 C 209.667969 206.046875 207.589844 205.742188 206.375 205.589844 C 202.875 205.234375 199.328125 205.082031 195.832031 204.980469 C 195.78125 204.980469 195.730469 204.980469 195.730469 205.03125 C 194.816406 206.605469 193.90625 207.769531 192.183594 208.480469 C 192.183594 208.480469 192.132812 208.53125 192.183594 208.53125 C 192.183594 208.53125 192.183594 208.53125 192.234375 208.53125 C 195.019531 208.628906 197.859375 208.628906 200.597656 208.679688 Z M 252.035156 210.65625 C 259.992188 211.113281 268 211.46875 275.90625 212.128906 C 275.957031 212.128906 275.957031 212.128906 275.957031 212.078125 C 275.957031 212.078125 275.957031 212.027344 275.90625 212.027344 C 274.234375 211.417969 272.917969 210.40625 271.902344 208.984375 C 271.902344 208.933594 271.851562 208.933594 271.800781 208.933594 L 251.328125 209.339844 C 251.277344 209.339844 251.277344 209.339844 251.226562 209.390625 C 251.023438 209.796875 250.769531 210.152344 250.464844 210.457031 C 250.464844 210.457031 250.464844 210.507812 250.464844 210.554688 C 250.464844 210.554688 250.464844 210.554688 250.515625 210.554688 C 251.023438 210.605469 251.527344 210.65625 252.035156 210.65625 Z M 252.035156 210.65625 " fill-opacity="1" fill-rule="nonzero"/></g><path fill="#ffb200" d="M 239.621094 193.527344 C 241.597656 194.035156 242.914062 195.960938 243.472656 197.835938 C 243.472656 197.886719 243.472656 197.886719 243.421875 197.9375 L 240.074219 199.710938 C 239.871094 199.8125 239.671875 199.761719 239.570312 199.558594 C 239.519531 199.507812 239.519531 199.457031 239.519531 199.355469 L 239.570312 193.578125 C 239.570312 193.578125 239.570312 193.527344 239.621094 193.527344 Z M 239.621094 193.527344 " fill-opacity="1" fill-rule="nonzero"/><path fill="#ffb200" d="M 234.09375 197.632812 C 234.09375 197.632812 234.042969 197.582031 234.09375 197.582031 C 234.753906 195.808594 235.867188 194.289062 237.695312 193.628906 C 237.746094 193.628906 237.792969 193.628906 237.792969 193.679688 C 237.792969 193.679688 237.792969 193.679688 237.792969 193.730469 C 237.792969 195.554688 237.792969 197.378906 237.792969 199.203125 C 237.792969 199.558594 237.644531 199.710938 237.339844 199.863281 C 237.289062 199.863281 237.238281 199.863281 237.238281 199.863281 C 236.222656 199 235.160156 198.292969 234.09375 197.632812 Z M 234.09375 197.632812 " fill-opacity="1" fill-rule="nonzero"/><path fill="#ffb200" d="M 236.527344 201.839844 C 237.289062 202.347656 236.933594 203.15625 236.527344 203.867188 C 235.816406 204.929688 235.210938 206.097656 234.5 207.210938 C 234.449219 207.261719 234.449219 207.261719 234.398438 207.210938 C 233.335938 204.980469 232.980469 202.652344 233.285156 200.21875 C 233.285156 200.167969 233.335938 200.167969 233.386719 200.167969 C 234.90625 200.875 235.96875 201.484375 236.527344 201.839844 Z M 236.527344 201.839844 " fill-opacity="1" fill-rule="nonzero"/><path fill="#ffb200" d="M 240.429688 202.246094 C 240.480469 202.195312 240.53125 202.144531 240.582031 202.09375 L 244.027344 200.523438 C 244.078125 200.523438 244.078125 200.523438 244.078125 200.574219 C 244.28125 202.902344 243.875 205.234375 242.710938 207.210938 C 242.660156 207.261719 242.609375 207.261719 242.558594 207.261719 C 242.558594 207.261719 242.507812 207.261719 242.507812 207.210938 C 241.898438 206.148438 241.292969 205.03125 240.632812 203.917969 C 240.328125 203.257812 240.074219 202.902344 240.429688 202.246094 Z M 240.429688 202.246094 " fill-opacity="1" fill-rule="nonzero"/><path fill="#ffb200" d="M 241.089844 209.289062 C 239.367188 210.605469 237.542969 210.605469 235.917969 209.136719 C 235.867188 209.085938 235.867188 209.035156 235.867188 208.984375 L 238.148438 204.878906 C 238.300781 204.628906 238.554688 204.578125 238.808594 204.679688 C 238.910156 204.726562 238.960938 204.777344 239.011719 204.878906 L 241.089844 209.136719 C 241.140625 209.238281 241.140625 209.238281 241.089844 209.289062 Z M 241.089844 209.289062 " fill-opacity="1" fill-rule="nonzero"/><g clip-path="url(#273a60b8df)"><path fill="#ffb200" d="M 86.609375 213.292969 L 101.664062 216.40625 C 97.511719 215.886719 92.320312 215.367188 85.570312 213.8125 L 86.089844 211.734375 Z M 185.25 174.875 C 185.25 174.875 185.769531 174.355469 186.289062 174.355469 C 186.804688 173.835938 187.84375 174.355469 188.363281 174.355469 C 188.363281 174.875 188.882812 175.394531 188.882812 175.914062 C 189.402344 176.429688 188.882812 177.46875 188.363281 177.988281 C 188.363281 178.507812 187.84375 178.507812 187.324219 178.507812 C 186.289062 178.507812 186.289062 179.027344 186.289062 180.066406 C 187.324219 180.066406 188.882812 180.066406 189.921875 180.066406 L 190.441406 180.066406 C 190.441406 180.585938 190.960938 181.105469 190.960938 182.140625 C 184.210938 181.105469 177.460938 181.621094 171.75 185.777344 C 175.386719 181.621094 179.539062 180.585938 184.210938 180.066406 C 182.652344 173.316406 181.613281 168.125 181.613281 167.085938 C 181.613281 166.566406 181.613281 166.566406 181.613281 166.566406 C 184.210938 167.605469 185.25 168.644531 185.769531 169.683594 L 187.324219 173.316406 C 186.804688 173.316406 186.804688 173.316406 186.289062 173.316406 L 185.25 169.683594 C 184.730469 169.164062 183.691406 168.125 181.613281 167.085938 C 182.132812 169.164062 183.171875 174.875 184.210938 180.066406 C 184.730469 180.066406 185.25 180.066406 185.25 180.066406 C 185.25 179.546875 185.769531 178.507812 185.769531 177.988281 C 184.730469 177.46875 184.730469 175.914062 185.25 174.875 Z M 185.25 175.914062 C 184.730469 176.949219 185.25 177.46875 186.289062 177.988281 C 187.324219 178.507812 188.363281 177.988281 188.882812 177.46875 C 187.84375 177.46875 187.324219 177.988281 186.289062 177.46875 C 185.769531 177.46875 185.25 176.429688 185.25 175.914062 Z M 176.941406 167.605469 C 175.902344 166.566406 169.675781 166.566406 159.808594 167.085938 L 152.023438 176.429688 C 148.90625 176.429688 145.792969 176.429688 143.199219 176.429688 L 150.464844 167.605469 C 149.425781 167.605469 148.390625 167.605469 147.351562 168.125 L 139.5625 176.429688 C 138.007812 176.429688 136.96875 176.429688 135.929688 176.949219 L 143.714844 168.125 C 142.679688 168.125 141.640625 168.125 140.601562 168.644531 C 138.007812 168.644531 136.449219 169.164062 134.890625 170.722656 C 131.257812 173.835938 129.179688 175.914062 128.140625 176.949219 C 128.140625 176.949219 128.140625 176.429688 127.621094 176.429688 C 127.621094 175.914062 130.21875 173.835938 134.890625 169.683594 C 135.929688 168.125 138.007812 167.605469 140.082031 167.605469 C 163.445312 165.527344 175.386719 165.011719 176.941406 166.566406 Z M 180.058594 198.753906 L 178.5 206.542969 C 178.5 207.0625 178.5 207.0625 178.5 207.582031 L 182.652344 205.503906 C 182.652344 204.984375 183.171875 204.984375 183.171875 204.464844 C 183.171875 202.910156 182.132812 200.832031 181.097656 199.273438 C 180.578125 198.753906 180.578125 198.753906 180.058594 198.753906 Z M 181.613281 197.199219 C 185.769531 202.910156 185.25 213.292969 181.097656 218.484375 C 179.539062 220.558594 177.460938 221.597656 174.347656 221.078125 C 180.578125 223.675781 184.730469 216.925781 185.25 210.695312 C 186.289062 206.023438 185.25 200.3125 181.613281 197.199219 Z M 177.980469 210.695312 C 178.5 211.734375 179.019531 213.8125 180.058594 216.925781 C 180.058594 216.925781 180.058594 217.445312 180.578125 217.445312 C 181.613281 215.886719 182.132812 213.8125 183.171875 211.214844 C 183.171875 210.695312 183.171875 210.695312 182.652344 210.175781 L 179.019531 209.65625 C 179.019531 210.175781 178.5 210.695312 177.980469 210.695312 Z M 176.941406 212.253906 C 176.941406 210.695312 176.421875 210.695312 175.902344 211.734375 C 173.308594 216.40625 172.269531 218.484375 172.269531 217.964844 C 171.75 218.484375 171.75 219.003906 172.269531 219.519531 C 173.308594 220.558594 174.347656 220.558594 175.902344 220.558594 C 176.421875 220.558594 176.941406 220.039062 176.941406 220.039062 Z M 84.015625 214.847656 L 94.914062 217.445312 C 102.183594 221.597656 109.453125 221.597656 115.683594 217.445312 L 133.332031 217.964844 C 134.371094 217.964844 134.890625 218.484375 135.929688 219.519531 C 143.199219 219.519531 151.503906 219.519531 160.847656 219.519531 C 161.886719 222.117188 163.964844 224.714844 166.558594 226.269531 L 179.539062 226.269531 C 185.25 225.75 189.402344 214.847656 189.402344 210.175781 L 194.59375 210.175781 C 196.152344 210.175781 196.671875 204.984375 196.152344 195.121094 C 197.707031 191.488281 197.707031 186.816406 195.632812 183.179688 C 195.113281 182.140625 194.074219 180.585938 192.515625 179.546875 L 190.960938 179.027344 L 187.324219 170.722656 C 186.289062 167.605469 183.691406 165.011719 180.058594 163.972656 C 175.902344 161.894531 163.964844 161.894531 144.234375 163.972656 C 138.523438 164.492188 135.929688 164.492188 133.851562 166.566406 C 131.257812 168.644531 128.660156 171.757812 124.507812 175.914062 C 123.46875 176.429688 122.429688 176.949219 121.394531 177.46875 L 110.492188 177.988281 C 100.625 179.027344 91.800781 180.585938 83.496094 185.257812 C 81.417969 186.296875 79.859375 186.816406 79.339844 188.890625 C 78.820312 193.042969 79.859375 195.640625 82.457031 198.234375 C 79.859375 199.273438 80.898438 201.351562 81.417969 202.390625 L 85.050781 210.175781 Z M 148.90625 199.792969 L 98.550781 198.753906 L 97.511719 197.71875 L 148.90625 199.273438 Z M 149.945312 196.679688 L 95.953125 196.679688 L 95.433594 195.640625 Z M 150.464844 194.082031 L 94.914062 194.082031 L 94.914062 193.5625 Z M 151.503906 191.488281 L 94.398438 192.007812 L 94.398438 190.96875 Z M 154.617188 189.929688 C 135.929688 189.929688 111.011719 188.890625 92.839844 189.929688 C 92.320312 189.929688 91.800781 189.929688 91.800781 190.449219 C 92.320312 195.121094 93.878906 198.234375 95.953125 200.3125 C 95.953125 199.792969 95.953125 199.792969 95.433594 199.792969 C 92.320312 198.234375 90.242188 194.601562 89.722656 188.890625 C 89.722656 188.371094 90.242188 188.371094 90.242188 188.371094 C 109.453125 187.332031 135.929688 188.371094 155.136719 188.371094 C 156.175781 188.371094 156.695312 188.371094 156.695312 190.449219 C 156.175781 191.488281 155.65625 194.082031 154.617188 195.121094 C 154.617188 194.601562 155.136719 192.523438 155.136719 190.96875 C 155.136719 189.929688 155.136719 189.929688 154.617188 189.929688 Z M 142.160156 185.257812 C 123.46875 184.738281 112.566406 185.777344 115.164062 184.21875 C 119.835938 182.140625 120.355469 181.621094 123.988281 180.066406 C 118.796875 181.621094 111.011719 185.257812 111.011719 185.257812 C 94.914062 186.816406 88.6875 186.296875 92.839844 183.699219 C 100.109375 181.105469 111.011719 179.546875 127.105469 179.027344 C 153.0625 178.507812 169.675781 178.507812 175.902344 179.027344 C 176.941406 179.027344 177.980469 178.507812 179.019531 180.066406 C 176.941406 180.585938 172.789062 182.140625 170.710938 184.21875 C 169.675781 185.257812 169.675781 185.257812 167.597656 185.257812 C 152.023438 185.257812 146.3125 185.257812 147.871094 185.257812 C 144.234375 184.738281 155.136719 181.105469 155.136719 181.105469 C 146.832031 183.179688 142.160156 185.257812 142.160156 185.257812 Z M 172.789062 211.214844 L 174.867188 209.65625 C 175.386719 209.136719 175.386719 208.617188 174.867188 208.101562 L 174.347656 207.582031 L 174.867188 204.984375 L 175.902344 206.542969 C 176.421875 206.542969 176.941406 206.542969 176.941406 206.023438 L 176.941406 200.3125 C 177.460938 198.234375 178.5 194.601562 181.097656 195.121094 C 182.652344 196.160156 183.691406 197.199219 184.730469 198.753906 C 186.804688 202.390625 187.324219 206.542969 186.804688 210.695312 C 185.769531 216.40625 183.171875 222.117188 177.460938 222.636719 C 174.867188 222.636719 171.230469 220.558594 170.195312 217.445312 C 170.710938 216.925781 171.230469 215.886719 171.75 214.847656 Z M 170.195312 205.503906 L 139.042969 204.464844 L 167.078125 203.945312 C 172.789062 203.425781 173.308594 202.390625 174.867188 198.234375 C 174.867188 197.71875 176.421875 194.601562 176.421875 194.601562 C 178.5 190.449219 181.613281 189.410156 182.652344 195.121094 C 179.539062 191.488281 177.460938 195.121094 176.421875 197.71875 C 175.386719 200.3125 174.347656 205.503906 170.195312 205.503906 Z M 194.59375 200.832031 C 194.59375 199.273438 194.59375 198.234375 194.074219 198.234375 C 194.59375 197.199219 195.113281 196.679688 195.632812 196.160156 C 195.632812 198.753906 195.632812 202.910156 195.632812 205.503906 C 195.113281 209.136719 194.59375 209.65625 194.59375 207.582031 C 194.074219 206.023438 194.074219 204.984375 194.074219 203.425781 C 194.59375 203.425781 194.59375 202.390625 194.59375 200.832031 Z M 162.925781 197.199219 C 161.367188 196.679688 160.847656 195.121094 160.847656 193.5625 C 160.847656 195.121094 161.886719 196.160156 162.925781 196.679688 C 163.964844 197.71875 165.519531 197.71875 166.558594 196.679688 C 168.117188 196.160156 168.636719 195.121094 168.636719 193.5625 C 168.636719 195.121094 168.117188 196.679688 167.078125 197.199219 C 165.519531 198.234375 163.964844 198.234375 162.925781 197.199219 Z M 164.484375 194.082031 C 164.484375 194.082031 164.484375 194.082031 163.964844 194.082031 C 163.964844 193.5625 163.964844 193.5625 163.964844 193.5625 C 163.964844 193.042969 163.964844 193.042969 163.964844 193.042969 C 163.964844 193.042969 163.964844 193.042969 163.964844 193.5625 C 163.964844 193.5625 164.484375 194.082031 164.484375 194.082031 Z M 165.003906 194.082031 C 165.003906 194.082031 165.003906 193.5625 165.003906 193.042969 C 165.003906 193.042969 165.003906 192.523438 164.484375 192.523438 C 164.484375 192.523438 163.964844 192.523438 163.964844 192.523438 C 163.964844 192.007812 164.484375 192.007812 165.003906 192.007812 C 165.519531 192.007812 166.039062 192.523438 166.039062 193.042969 C 166.039062 193.5625 165.519531 194.082031 165.003906 194.082031 Z M 169.15625 194.601562 C 169.675781 193.042969 168.636719 190.96875 167.078125 189.929688 C 165.519531 188.890625 163.445312 188.890625 161.886719 189.929688 C 160.847656 190.96875 159.808594 193.042969 160.328125 194.601562 C 159.808594 193.042969 160.328125 190.449219 161.886719 189.410156 C 163.445312 187.851562 166.039062 187.851562 167.597656 189.410156 C 169.15625 190.449219 169.675781 193.042969 169.15625 194.601562 Z M 194.074219 186.816406 C 194.59375 186.816406 194.59375 186.296875 194.59375 185.777344 L 195.632812 185.777344 C 195.632812 185.257812 195.632812 184.738281 195.113281 184.21875 C 196.671875 186.816406 196.671875 191.488281 195.113281 195.121094 C 195.113281 194.601562 195.632812 194.082031 195.632812 193.5625 L 194.59375 193.5625 C 194.074219 193.042969 194.074219 193.042969 194.074219 192.523438 L 195.632812 192.523438 C 195.632812 192.523438 195.632812 192.007812 195.632812 192.007812 L 194.074219 192.007812 C 194.074219 191.488281 194.074219 191.488281 194.074219 190.96875 L 195.632812 190.96875 C 195.632812 190.96875 195.632812 190.449219 195.632812 190.449219 L 194.074219 190.449219 C 194.074219 189.929688 194.074219 189.929688 194.074219 189.929688 C 194.074219 189.410156 194.074219 189.410156 194.074219 189.410156 L 195.632812 189.410156 C 195.632812 188.890625 196.152344 188.890625 196.152344 188.371094 L 194.074219 188.371094 C 194.074219 188.371094 194.074219 187.851562 194.074219 187.851562 L 195.632812 187.851562 C 195.632812 187.332031 195.632812 187.332031 195.632812 186.816406 Z M 93.359375 201.351562 L 82.976562 200.832031 C 82.457031 200.832031 81.9375 201.351562 81.9375 201.871094 C 80.898438 200.3125 81.417969 199.273438 82.976562 198.753906 C 82.457031 199.273438 82.976562 199.792969 83.496094 199.792969 Z M 87.128906 188.890625 C 88.167969 190.449219 88.6875 192.523438 88.167969 194.601562 C 88.6875 192.523438 88.167969 190.96875 86.609375 189.410156 C 85.570312 188.371094 83.496094 187.851562 82.457031 188.890625 C 80.898438 189.929688 80.378906 191.488281 80.898438 193.042969 C 79.859375 191.488281 80.378906 189.410156 81.9375 188.371094 C 83.496094 187.332031 85.570312 187.332031 87.128906 188.890625 Z M 86.609375 196.679688 C 85.050781 197.199219 83.496094 197.199219 82.457031 196.160156 C 81.417969 195.121094 80.898438 193.5625 81.417969 192.007812 C 80.898438 193.5625 81.9375 194.601562 82.976562 195.640625 C 84.015625 196.160156 85.050781 196.679688 86.089844 196.160156 C 87.128906 195.640625 87.648438 194.601562 87.648438 193.042969 C 88.167969 194.601562 87.648438 196.160156 86.609375 196.679688 Z M 193.554688 182.140625 C 192.515625 182.140625 192 182.140625 190.960938 182.140625 C 190.960938 181.105469 190.960938 180.585938 190.441406 180.066406 C 190.960938 180.066406 191.480469 180.066406 192.515625 180.066406 C 193.554688 181.621094 194.074219 182.140625 193.554688 182.140625 Z M 141.121094 217.445312 L 167.078125 215.886719 C 167.597656 215.886719 169.15625 215.886719 169.675781 214.328125 L 172.269531 210.695312 L 170.195312 214.328125 C 169.675781 215.886719 168.636719 216.40625 168.117188 216.40625 C 156.695312 216.925781 147.871094 217.445312 141.121094 217.445312 Z M 85.570312 192.523438 C 85.570312 193.042969 85.050781 193.042969 84.53125 193.042969 C 84.53125 193.042969 85.050781 192.523438 85.050781 192.523438 C 85.050781 192.007812 84.53125 192.007812 84.53125 191.488281 C 84.015625 191.488281 84.015625 191.488281 83.496094 191.488281 C 84.015625 190.96875 84.015625 190.96875 84.53125 190.96875 C 85.050781 190.96875 85.570312 192.007812 85.570312 192.523438 Z M 84.015625 192.007812 C 84.015625 192.007812 83.496094 192.007812 84.015625 192.523438 C 84.015625 192.523438 84.015625 193.042969 84.53125 193.042969 C 84.015625 193.042969 84.015625 193.042969 84.015625 192.523438 C 83.496094 192.523438 83.496094 192.523438 83.496094 192.007812 C 83.496094 192.007812 83.496094 192.007812 84.015625 192.007812 Z M 84.015625 192.007812 " fill-opacity="1" fill-rule="evenodd"/></g><g fill="#fffcf5" fill-opacity="1"><g transform="translate(92.901348, 147.103262)"><g><path d="M 0.296875 0 C 0.0976562 0 0 -0.0976562 0 -0.296875 L 0 -11.546875 C 0 -12.390625 0.28125 -13.09375 0.84375 -13.65625 C 1.40625 -14.21875 2.109375 -14.5 2.953125 -14.5 L 11.546875 -14.5 C 12.085938 -14.5 12.585938 -14.375 13.046875 -14.125 C 13.515625 -14.375 14.019531 -14.5 14.5625 -14.5 L 23.140625 -14.5 C 23.992188 -14.5 24.695312 -14.21875 25.25 -13.65625 C 25.8125 -13.09375 26.09375 -12.390625 26.09375 -11.546875 L 26.09375 -0.296875 C 26.09375 -0.0976562 26 0 25.8125 0 L 23.484375 0 C 23.296875 0 23.203125 -0.0976562 23.203125 -0.296875 L 23.203125 -11.015625 C 23.203125 -11.171875 23.144531 -11.304688 23.03125 -11.421875 C 22.914062 -11.535156 22.78125 -11.59375 22.625 -11.59375 L 15.078125 -11.59375 C 14.921875 -11.59375 14.785156 -11.535156 14.671875 -11.421875 C 14.554688 -11.304688 14.5 -11.171875 14.5 -11.015625 L 14.5 -0.296875 C 14.5 -0.0976562 14.398438 0 14.203125 0 L 11.890625 0 C 11.691406 0 11.59375 -0.0976562 11.59375 -0.296875 L 11.59375 -11.015625 C 11.59375 -11.171875 11.535156 -11.304688 11.421875 -11.421875 C 11.304688 -11.535156 11.171875 -11.59375 11.015625 -11.59375 L 3.484375 -11.59375 C 3.328125 -11.59375 3.191406 -11.535156 3.078125 -11.421875 C 2.960938 -11.304688 2.90625 -11.171875 2.90625 -11.015625 L 2.90625 -0.296875 C 2.90625 -0.0976562 2.804688 0 2.609375 0 Z M 0.296875 0 "/></g></g></g><g fill="#fffcf5" fill-opacity="1"><g transform="translate(124.068523, 147.103262)"><g><path d="M 2.953125 0 C 2.109375 0 1.40625 -0.28125 0.84375 -0.84375 C 0.28125 -1.40625 0 -2.109375 0 -2.953125 L 0 -11.546875 C 0 -12.390625 0.28125 -13.09375 0.84375 -13.65625 C 1.40625 -14.21875 2.109375 -14.5 2.953125 -14.5 L 20.015625 -14.5 C 20.203125 -14.5 20.296875 -14.398438 20.296875 -14.203125 L 20.296875 -11.890625 C 20.296875 -11.691406 20.203125 -11.59375 20.015625 -11.59375 L 3.484375 -11.59375 C 3.328125 -11.59375 3.191406 -11.535156 3.078125 -11.421875 C 2.960938 -11.304688 2.90625 -11.171875 2.90625 -11.015625 L 2.90625 -8.703125 L 18.625 -8.703125 C 18.851562 -8.703125 18.96875 -8.601562 18.96875 -8.40625 L 18.96875 -6.09375 C 18.96875 -5.894531 18.851562 -5.796875 18.625 -5.796875 L 2.90625 -5.796875 L 2.90625 -3.484375 C 2.90625 -3.328125 2.960938 -3.191406 3.078125 -3.078125 C 3.191406 -2.960938 3.328125 -2.90625 3.484375 -2.90625 L 20.015625 -2.90625 C 20.203125 -2.90625 20.296875 -2.804688 20.296875 -2.609375 L 20.296875 -0.296875 C 20.296875 -0.0976562 20.203125 0 20.015625 0 Z M 2.953125 0 "/></g></g></g><g fill="#fffcf5" fill-opacity="1"><g transform="translate(149.437263, 147.103262)"><g><path d="M 2.953125 0 C 2.109375 0 1.40625 -0.28125 0.84375 -0.84375 C 0.28125 -1.40625 0 -2.109375 0 -2.953125 L 0 -11.546875 C 0 -12.390625 0.28125 -13.09375 0.84375 -13.65625 C 1.40625 -14.21875 2.109375 -14.5 2.953125 -14.5 L 20.015625 -14.5 C 20.203125 -14.5 20.296875 -14.398438 20.296875 -14.203125 L 20.296875 -11.890625 C 20.296875 -11.691406 20.203125 -11.59375 20.015625 -11.59375 L 3.484375 -11.59375 C 3.328125 -11.59375 3.191406 -11.535156 3.078125 -11.421875 C 2.960938 -11.304688 2.90625 -11.171875 2.90625 -11.015625 L 2.90625 -3.484375 C 2.90625 -3.328125 2.960938 -3.191406 3.078125 -3.078125 C 3.191406 -2.960938 3.328125 -2.90625 3.484375 -2.90625 L 16.8125 -2.90625 C 16.96875 -2.90625 17.101562 -2.960938 17.21875 -3.078125 C 17.34375 -3.191406 17.40625 -3.328125 17.40625 -3.484375 L 17.40625 -5.796875 L 6.09375 -5.796875 C 5.894531 -5.796875 5.796875 -5.894531 5.796875 -6.09375 L 5.796875 -8.40625 C 5.796875 -8.601562 5.894531 -8.703125 6.09375 -8.703125 L 20.015625 -8.703125 C 20.203125 -8.703125 20.296875 -8.601562 20.296875 -8.40625 L 20.296875 -2.953125 C 20.296875 -2.109375 20.015625 -1.40625 19.453125 -0.84375 C 18.898438 -0.28125 18.195312 0 17.34375 0 Z M 2.953125 0 "/></g></g></g><g fill="#fffcf5" fill-opacity="1"><g transform="translate(174.806003, 147.103262)"><g><path d="M 0.296875 0 C 0.0976562 0 0 -0.0976562 0 -0.296875 L 0 -11.546875 C 0 -12.390625 0.28125 -13.09375 0.84375 -13.65625 C 1.40625 -14.21875 2.109375 -14.5 2.953125 -14.5 L 17.34375 -14.5 C 18.195312 -14.5 18.898438 -14.21875 19.453125 -13.65625 C 20.015625 -13.09375 20.296875 -12.390625 20.296875 -11.546875 L 20.296875 -0.296875 C 20.296875 -0.0976562 20.203125 0 20.015625 0 L 17.6875 0 C 17.5 0 17.40625 -0.0976562 17.40625 -0.296875 L 17.40625 -5.796875 L 2.90625 -5.796875 L 2.90625 -0.296875 C 2.90625 -0.0976562 2.804688 0 2.609375 0 Z M 2.90625 -8.703125 L 17.40625 -8.703125 L 17.40625 -11.015625 C 17.40625 -11.171875 17.34375 -11.304688 17.21875 -11.421875 C 17.101562 -11.535156 16.96875 -11.59375 16.8125 -11.59375 L 3.484375 -11.59375 C 3.328125 -11.59375 3.191406 -11.535156 3.078125 -11.421875 C 2.960938 -11.304688 2.90625 -11.171875 2.90625 -11.015625 Z M 2.90625 -8.703125 "/></g></g></g><g fill="#fffcf5" fill-opacity="1"><g transform="translate(200.174743, 147.103262)"><g><path d="M 2.953125 0 C 2.109375 0 1.40625 -0.28125 0.84375 -0.84375 C 0.28125 -1.40625 0 -2.109375 0 -2.953125 L 0 -11.546875 C 0 -12.390625 0.28125 -13.09375 0.84375 -13.65625 C 1.40625 -14.21875 2.109375 -14.5 2.953125 -14.5 L 20.015625 -14.5 C 20.203125 -14.5 20.296875 -14.398438 20.296875 -14.203125 L 20.296875 -11.890625 C 20.296875 -11.691406 20.203125 -11.59375 20.015625 -11.59375 L 3.484375 -11.59375 C 3.328125 -11.59375 3.191406 -11.535156 3.078125 -11.421875 C 2.960938 -11.304688 2.90625 -11.171875 2.90625 -11.015625 L 2.90625 -3.484375 C 2.90625 -3.328125 2.960938 -3.191406 3.078125 -3.078125 C 3.191406 -2.960938 3.328125 -2.90625 3.484375 -2.90625 L 20.015625 -2.90625 C 20.203125 -2.90625 20.296875 -2.804688 20.296875 -2.609375 L 20.296875 -0.296875 C 20.296875 -0.0976562 20.203125 0 20.015625 0 Z M 2.953125 0 "/></g></g></g><g fill="#fffcf5" fill-opacity="1"><g transform="translate(225.543489, 147.103262)"><g><path d="M 0.296875 0 C 0.0976562 0 0 -0.0976562 0 -0.296875 L 0 -14.203125 C 0 -14.398438 0.0976562 -14.5 0.296875 -14.5 L 2.609375 -14.5 C 2.804688 -14.5 2.90625 -14.398438 2.90625 -14.203125 L 2.90625 -0.296875 C 2.90625 -0.0976562 2.804688 0 2.609375 0 Z M 0.296875 0 "/></g></g></g><g fill="#fffcf5" fill-opacity="1"><g transform="translate(233.51693, 147.103262)"><g><path d="M 8.984375 0 C 8.796875 0 8.703125 -0.0976562 8.703125 -0.296875 L 8.703125 -11.59375 L 0.296875 -11.59375 C 0.0976562 -11.59375 0 -11.691406 0 -11.890625 L 0 -14.203125 C 0 -14.398438 0.0976562 -14.5 0.296875 -14.5 L 20.015625 -14.5 C 20.203125 -14.5 20.296875 -14.398438 20.296875 -14.203125 L 20.296875 -11.890625 C 20.296875 -11.691406 20.203125 -11.59375 20.015625 -11.59375 L 11.59375 -11.59375 L 11.59375 -0.296875 C 11.59375 -0.0976562 11.5 0 11.3125 0 Z M 8.984375 0 "/></g></g></g><g fill="#fffcf5" fill-opacity="1"><g transform="translate(258.885665, 147.103262)"><g><path d="M 0.296875 0 C 0.0976562 0 0 -0.0976562 0 -0.296875 L 0 -2.609375 C 0 -2.804688 0.0976562 -2.90625 0.296875 -2.90625 L 16.8125 -2.90625 C 16.96875 -2.90625 17.101562 -2.960938 17.21875 -3.078125 C 17.34375 -3.191406 17.40625 -3.328125 17.40625 -3.484375 L 17.40625 -5.796875 L 2.953125 -5.796875 C 2.109375 -5.796875 1.40625 -6.078125 0.84375 -6.640625 C 0.28125 -7.203125 0 -7.910156 0 -8.765625 L 0 -14.203125 C 0 -14.398438 0.0976562 -14.5 0.296875 -14.5 L 2.609375 -14.5 C 2.804688 -14.5 2.90625 -14.398438 2.90625 -14.203125 L 2.90625 -9.28125 C 2.90625 -9.125 2.960938 -8.988281 3.078125 -8.875 C 3.191406 -8.757812 3.328125 -8.703125 3.484375 -8.703125 L 17.40625 -8.703125 L 17.40625 -14.203125 C 17.40625 -14.398438 17.5 -14.5 17.6875 -14.5 L 20.015625 -14.5 C 20.203125 -14.5 20.296875 -14.398438 20.296875 -14.203125 L 20.296875 -2.953125 C 20.296875 -2.109375 20.015625 -1.40625 19.453125 -0.84375 C 18.898438 -0.28125 18.195312 0 17.34375 0 Z M 0.296875 0 "/></g></g></g><g fill="#ffb200" fill-opacity="1"><g transform="translate(89.350825, 248.146712)"><g><path d="M 5.3125 -0.921875 L 2.03125 -0.921875 L 2.03125 -8.6875 L 0.984375 -8.6875 L 0.984375 0 L 5.3125 0 Z M 5.3125 -0.921875 "/></g></g></g><g fill="#ffb200" fill-opacity="1"><g transform="translate(101.958886, 248.146712)"><g><path d="M 5.015625 0.09375 C 5.898438 0.09375 6.4375 -0.191406 6.625 -0.765625 C 6.6875 -0.953125 6.71875 -1.175781 6.71875 -1.4375 L 6.71875 -8.6875 L 5.640625 -8.6875 L 5.640625 -0.984375 C 5.617188 -0.910156 5.578125 -0.867188 5.515625 -0.859375 L 2.046875 -0.859375 C 1.972656 -0.878906 1.929688 -0.921875 1.921875 -0.984375 L 1.921875 -8.6875 L 0.84375 -8.6875 L 0.84375 -1.4375 C 0.84375 -0.632812 1.160156 -0.148438 1.796875 0.015625 C 2.003906 0.0664062 2.253906 0.09375 2.546875 0.09375 Z M 5.015625 0.09375 "/></g></g></g><g fill="#ffb200" fill-opacity="1"><g transform="translate(116.753226, 248.146712)"><g><path d="M 4.359375 -4.984375 C 4.328125 -4.898438 4.28125 -4.859375 4.21875 -4.859375 L 3.34375 -4.859375 C 3.28125 -4.859375 3.226562 -4.898438 3.1875 -4.984375 L 1.4375 -8.703125 L 0.28125 -8.703125 L 1.828125 -5.484375 C 2.066406 -4.941406 2.289062 -4.601562 2.5 -4.46875 C 2.550781 -4.445312 2.59375 -4.425781 2.625 -4.40625 C 2.40625 -4.289062 2.1875 -4.023438 1.96875 -3.609375 C 1.9375 -3.535156 1.890625 -3.441406 1.828125 -3.328125 L 0.140625 -0.015625 L 1.21875 -0.015625 L 3.125 -3.828125 C 3.195312 -3.898438 3.253906 -3.9375 3.296875 -3.9375 L 4.171875 -3.9375 C 4.242188 -3.914062 4.296875 -3.878906 4.328125 -3.828125 L 6.234375 0 L 7.390625 0 L 5.640625 -3.328125 C 5.367188 -3.847656 5.160156 -4.164062 5.015625 -4.28125 C 4.960938 -4.320312 4.910156 -4.359375 4.859375 -4.390625 C 5.066406 -4.492188 5.269531 -4.742188 5.46875 -5.140625 C 5.507812 -5.203125 5.566406 -5.3125 5.640625 -5.46875 L 7.203125 -8.6875 L 6.140625 -8.6875 Z M 4.359375 -4.984375 "/></g></g></g><g fill="#ffb200" fill-opacity="1"><g transform="translate(131.506573, 248.146712)"><g><path d="M 5.015625 0.09375 C 5.898438 0.09375 6.4375 -0.191406 6.625 -0.765625 C 6.6875 -0.953125 6.71875 -1.175781 6.71875 -1.4375 L 6.71875 -8.6875 L 5.640625 -8.6875 L 5.640625 -0.984375 C 5.617188 -0.910156 5.578125 -0.867188 5.515625 -0.859375 L 2.046875 -0.859375 C 1.972656 -0.878906 1.929688 -0.921875 1.921875 -0.984375 L 1.921875 -8.6875 L 0.84375 -8.6875 L 0.84375 -1.4375 C 0.84375 -0.632812 1.160156 -0.148438 1.796875 0.015625 C 2.003906 0.0664062 2.253906 0.09375 2.546875 0.09375 Z M 5.015625 0.09375 "/></g></g></g><g fill="#ffb200" fill-opacity="1"><g transform="translate(146.300913, 248.146712)"><g><path d="M 2.0625 0 L 2.046875 -3.5625 L 4.265625 -3.5625 C 4.378906 -3.5625 4.453125 -3.515625 4.484375 -3.421875 L 5.65625 0 L 6.734375 0 L 5.734375 -2.84375 C 5.597656 -3.226562 5.441406 -3.5 5.265625 -3.65625 C 6.054688 -3.84375 6.457031 -4.378906 6.46875 -5.265625 L 6.46875 -7.0625 C 6.445312 -8.1875 5.84375 -8.742188 4.65625 -8.734375 L 1.015625 -8.6875 L 1.015625 0 Z M 5.203125 -7.828125 C 5.304688 -7.804688 5.363281 -7.742188 5.375 -7.640625 L 5.375 -4.640625 C 5.351562 -4.523438 5.296875 -4.460938 5.203125 -4.453125 L 2.046875 -4.453125 L 2.046875 -7.828125 Z M 5.203125 -7.828125 "/></g></g></g><g fill="#ffb200" fill-opacity="1"><g transform="translate(160.767308, 248.146712)"><g><path d="M 4.09375 0 L 4.09375 -3.140625 C 4.46875 -3.179688 4.738281 -3.34375 4.90625 -3.625 C 4.988281 -3.769531 5.097656 -4.003906 5.234375 -4.328125 L 6.96875 -8.6875 L 5.90625 -8.6875 L 4.125 -4.171875 C 4.09375 -4.085938 4.046875 -4.046875 3.984375 -4.046875 L 3.234375 -4.046875 C 3.160156 -4.066406 3.109375 -4.109375 3.078125 -4.171875 L 1.28125 -8.703125 L 0.171875 -8.703125 L 1.90625 -4.328125 C 2.113281 -3.796875 2.328125 -3.460938 2.546875 -3.328125 C 2.679688 -3.242188 2.847656 -3.1875 3.046875 -3.15625 L 3.046875 0 Z M 4.09375 0 "/></g></g></g><g fill="#ffb200" fill-opacity="1"><g transform="translate(175.151717, 248.146712)"><g/></g></g><g fill="#ffb200" fill-opacity="1"><g transform="translate(185.122576, 248.146712)"><g><path d="M 5.578125 -0.9375 L 2.046875 -0.9375 C 1.960938 -0.9375 1.921875 -0.976562 1.921875 -1.0625 L 1.921875 -7.609375 C 1.921875 -7.691406 1.960938 -7.734375 2.046875 -7.734375 L 5.578125 -7.734375 L 5.578125 -8.6875 L 2.53125 -8.6875 C 1.65625 -8.6875 1.125 -8.414062 0.9375 -7.875 C 0.863281 -7.675781 0.828125 -7.441406 0.828125 -7.171875 L 0.828125 -1.515625 C 0.828125 -0.722656 1.148438 -0.242188 1.796875 -0.078125 C 2.003906 -0.0234375 2.25 0 2.53125 0 L 5.578125 0 Z M 5.578125 -0.9375 "/></g></g></g><g fill="#ffb200" fill-opacity="1"><g transform="translate(198.236211, 248.146712)"><g><path d="M 7.03125 0 L 4.875 -8.6875 L 3.765625 -8.703125 C 3.210938 -8.703125 2.84375 -8.59375 2.65625 -8.375 C 2.53125 -8.207031 2.398438 -7.894531 2.265625 -7.4375 L 0.171875 0 L 1.15625 0 L 1.78125 -2.296875 L 5.40625 -2.296875 L 5.96875 0 Z M 3.234375 -7.65625 C 3.265625 -7.726562 3.3125 -7.769531 3.375 -7.78125 L 4.09375 -7.78125 L 5.203125 -3.203125 L 2.03125 -3.203125 Z M 3.234375 -7.65625 "/></g></g></g><g fill="#ffb200" fill-opacity="1"><g transform="translate(212.64795, 248.146712)"><g><path d="M 2.0625 0 L 2.046875 -3.5625 L 4.265625 -3.5625 C 4.378906 -3.5625 4.453125 -3.515625 4.484375 -3.421875 L 5.65625 0 L 6.734375 0 L 5.734375 -2.84375 C 5.597656 -3.226562 5.441406 -3.5 5.265625 -3.65625 C 6.054688 -3.84375 6.457031 -4.378906 6.46875 -5.265625 L 6.46875 -7.0625 C 6.445312 -8.1875 5.84375 -8.742188 4.65625 -8.734375 L 1.015625 -8.6875 L 1.015625 0 Z M 5.203125 -7.828125 C 5.304688 -7.804688 5.363281 -7.742188 5.375 -7.640625 L 5.375 -4.640625 C 5.351562 -4.523438 5.296875 -4.460938 5.203125 -4.453125 L 2.046875 -4.453125 L 2.046875 -7.828125 Z M 5.203125 -7.828125 "/></g></g></g><g fill="#ffb200" fill-opacity="1"><g transform="translate(227.114345, 248.146712)"><g/></g></g><g fill="#ffb200" fill-opacity="1"><g transform="translate(237.085203, 248.146712)"><g><path d="M 2.0625 0 L 2.046875 -3.5625 L 4.265625 -3.5625 C 4.378906 -3.5625 4.453125 -3.515625 4.484375 -3.421875 L 5.65625 0 L 6.734375 0 L 5.734375 -2.84375 C 5.597656 -3.226562 5.441406 -3.5 5.265625 -3.65625 C 6.054688 -3.84375 6.457031 -4.378906 6.46875 -5.265625 L 6.46875 -7.0625 C 6.445312 -8.1875 5.84375 -8.742188 4.65625 -8.734375 L 1.015625 -8.6875 L 1.015625 0 Z M 5.203125 -7.828125 C 5.304688 -7.804688 5.363281 -7.742188 5.375 -7.640625 L 5.375 -4.640625 C 5.351562 -4.523438 5.296875 -4.460938 5.203125 -4.453125 L 2.046875 -4.453125 L 2.046875 -7.828125 Z M 5.203125 -7.828125 "/></g></g></g><g fill="#ffb200" fill-opacity="1"><g transform="translate(251.551599, 248.146712)"><g><path d="M 5.8125 0 L 5.8125 -0.921875 L 2.03125 -0.921875 L 2.03125 -3.96875 L 5.515625 -3.96875 L 5.515625 -4.875 L 2.03125 -4.875 L 2.03125 -7.765625 L 5.75 -7.765625 L 5.75 -8.6875 L 0.984375 -8.6875 L 0.984375 0 Z M 5.8125 0 "/></g></g></g><g fill="#ffb200" fill-opacity="1"><g transform="translate(265.061497, 248.146712)"><g><path d="M 6.109375 0 L 6.84375 0 L 6.84375 -8.6875 L 5.921875 -8.6875 L 5.921875 -2.015625 L 1.65625 -8.6875 L 0.9375 -8.6875 L 0.9375 0 L 1.859375 0 L 1.859375 -6.6875 Z M 6.109375 0 "/></g></g></g><g fill="#ffb200" fill-opacity="1"><g transform="translate(280.074462, 248.146712)"><g><path d="M 3.3125 0 L 3.3125 -7.765625 L 5.5 -7.765625 L 5.5 -8.6875 L 0.0625 -8.6875 L 0.0625 -7.765625 L 2.25 -7.765625 L 2.25 0 Z M 3.3125 0 "/></g></g></g></svg>